<svg xmlns="http://www.w3.org/2000/svg" viewBox="0 0 423.8 59.2"><defs><style>.cls-1{fill:#ffde00;}</style></defs><g id="Laag_2" data-name="Laag 2"><g id="Laag_1-2" data-name="Laag 1"><path class="cls-1" d="M1.2,56.3H1c-.1,0-.2-.1-.4-.1s-.2-.1-.4-.1A.35.35,0,0,1,0,56l.1-.5a1.73,1.73,0,0,1,1.3.5c.3.3.3.8.2,1.5H1.2a1.27,1.27,0,0,0-.1-.6v-.4C1.2,56.4,1.2,56.4,1.2,56.3Zm28.6,1.2h-.7l-.2.1H25.8a1,1,0,0,1-.7-.2.75.75,0,0,1-.1-.5,1.27,1.27,0,0,1,.1-.6.73.73,0,0,0-.2-.6,4.57,4.57,0,0,0,.2-2,6.73,6.73,0,0,1,.1-2c-.1-.1-.1-.2-.1-.4s0-.3.1-.4c-.1-.1-.1-.1-.1-.2s.1-.4.2-.8a1.35,1.35,0,0,0,0-.9l.2-.8.2-.2.3-.3.3-.3a.31.31,0,0,0,.1-.2.9.9,0,0,0-.1-.5,2.19,2.19,0,0,0-.3-.5,1.76,1.76,0,0,0-.4-.5,1.69,1.69,0,0,1-.2-.5,1.7,1.7,0,0,0,.1-.7,1.48,1.48,0,0,1,.1-.7v-.1a1.64,1.64,0,0,1,.1,1,.59.59,0,0,1,.2.5c0,.3.1.4.3.4l.1-.1h0c.1,0,.1,0,.1.1h-.2v.1a1,1,0,0,0,.2.6c.2.3.3.4.5.4s.2-.1.4-.2.3-.3.5-.5l.5-.5.4-.4h0v-.2c0-.1,0-.1.1-.1h.1v-.6a1.85,1.85,0,0,0-.2-.7,4.88,4.88,0,0,0-.3-.7,1,1,0,0,0-.4-.5h-.1v-.1A.31.31,0,0,1,28,42c.1-.1.1-.2.2-.3s.2-.2.2-.3.1-.1.2-.1.1.1.2.3a1.42,1.42,0,0,1,.2.6,1.42,1.42,0,0,1,.2.6,1,1,0,0,1,.1.4c0,.1.1.1.1.3s.1.2.2.3h.2a1.73,1.73,0,0,0,.4-.3l.6-.6.6-.6.4-.4h0c.1-.2,0-.3-.1-.3h-.4c-.1,0-.1-.1-.1-.2s.1-.1.1-.2.1-.1.1-.2v-.2c0-.1-.1-.2-.1-.4s-.1-.2-.2-.3-.1-.1-.2-.1h-.2c-.1,0-.1,0-.1-.1v-.2c0-.1,0-.2.1-.2s.1-.1.1-.2,0-.3-.2-.4-.2-.2-.2-.3.1-.1.1-.2.1-.1.1-.2a.45.45,0,0,0,0-.5l-.4-.5h0a.54.54,0,0,0-.4.3c-.1.2-.3.3-.4.4V38a.66.66,0,0,0,.2.7h0c0,.1,0,.1-.1.3s-.1.2-.2.2-.1,0-.1-.1v-.4a.1.1,0,0,0-.1-.1.37.37,0,0,0-.3.1c-.1.1-.3.2-.4.3a.78.78,0,0,0-.4.4l-.2.2v.3c0,.1-.1.1-.2.2s-.3.1-.4.2-.3.2-.4.2a.52.52,0,0,0-.2.4v.4a.3.3,0,0,1,0,.4v.2c0-.1-.1-.2-.2-.4a1.24,1.24,0,0,0-.2-.3h0c-.1,0-.2.1-.3.2s-.2.2-.2.3-.1,0-.1-.1v-.5c.1-.1.1-.2.1-.4a3.81,3.81,0,0,1,.6-.5,2.25,2.25,0,0,0,.5-.5v-.4c0-.2,0-.3-.1-.4a.31.31,0,0,1-.2.1c-.1,0-.2,0-.1-.1a.31.31,0,0,1,.2-.1h.1c.1,0,.1,0,.1-.1v-.5c0-.3-.1-.5-.2-.5h-.2c-.1,0-.1,0-.1-.1a.22.22,0,0,1,.2-.2c.1,0,.1,0,.1-.1a1.34,1.34,0,0,1,.1-.5c0-.2,0-.4-.1-.4s-.1,0-.1.1h-.1c-.1,0-.1-.1-.1-.2s.1-.2.2-.1.2,0,.2-.1v-.5c0-.2-.2-.3-.4-.3,0-.1.1-.2.2-.3v-.2a.44.44,0,0,0-.1-.5c-.2-.1-.2-.2-.2-.3a.1.1,0,0,1,.1-.1.1.1,0,0,0,.1-.1l.1-.6c0-.2.1-.3.3-.5a1,1,0,0,0,.4-.5V32c-.1-.2-.2-.4-.3-.4a1.34,1.34,0,0,1-.5-.1h0l.2-.7h.2c.2,0,.3,0,.4.1s.2.1.4.1h.3v-.3c.1-.1.2-.2.3-.2s.1.1.1.2,0,.1-.1.2a.1.1,0,0,0-.1.1h0c.1.1.2.2.3.2s.2,0,.2-.1.1-.1.2-.1a.22.22,0,0,1,.2.2.77.77,0,0,1-.1.3.44.44,0,0,0,.1.5.6.6,0,0,1,.1.4c0,.2-.1.2-.3.2h-.1l-.1-.1a.1.1,0,0,0-.1-.1.31.31,0,0,0-.2.1l-.3.3a1.38,1.38,0,0,1-.4.3l-.2.2c0,.1-.1.1-.1.3s-.1.2-.1.3V35c0,.3.1.5.1.7a.44.44,0,0,0,.1.3h.2c.1,0,.1,0,.1.1s-.1.2-.2.1-.2,0-.2.1v.5a.9.9,0,0,0,.1.5h0c.1,0,.1,0,.1-.1a.35.35,0,0,1,.2-.1l-.1.2h-.2a.47.47,0,0,0,.1.6,1.42,1.42,0,0,0,.6.2c.1,0,.2-.1.4-.2s.3-.3.5-.5a2.65,2.65,0,0,0,.5-.6c.2-.2.2-.3.2-.4V35c0-.3-.1-.6-.1-.8a1,1,0,0,0-.1-.4c-.1,0-.1,0-.1.1l-.1.1c-.2,0-.2-.1-.1-.2s.1-.2.2-.2.2,0,.2-.1v-.4c0-.1-.1-.2-.1-.4-.1,0-.1,0-.1.1a.1.1,0,0,1-.1.1c-.1,0-.1,0-.2-.1s-.1-.1,0-.1.1-.2.2-.2h.2v-.4a.22.22,0,0,0-.2-.2l-.2-.2c-.1-.1-.1-.1-.1-.2a.1.1,0,0,1,.1-.1h.2a.62.62,0,0,0-.2-.7c-.2-.2-.3-.3-.2-.4a.22.22,0,0,1,.2-.2c.1,0,.1-.1.2-.2.1-.4-.1-.6-.4-.8a4.4,4.4,0,0,0-1-.2.37.37,0,0,0-.3.1.37.37,0,0,1-.3.1c-.2,0-.3-.1-.4-.4a.64.64,0,0,1,0-.6h0c.1-.2.2-.3.3-.5a1,1,0,0,1,.5-.4v-.6c0-.1-.1-.2-.3-.2v.2c0,.1,0,.1-.1.1s-.1-.1-.2-.2-.1-.2-.1-.3h-.3c-.1,0-.2-.1-.4-.1s-.2-.1-.3-.2a.31.31,0,0,1-.1-.2c0-.1.1-.2.1-.3V25a.52.52,0,0,0-.2-.4,1.34,1.34,0,0,1,.1-.5V22.8a.44.44,0,0,0-.1-.3V20.6a6.89,6.89,0,0,0-.3-.8.78.78,0,0,0-.7-.3c-.1,0-.2.1-.3.2l-.5.5-.5.5c-.1.2-.2.2-.2.3a.37.37,0,0,0,.1.3c0,.1.1.2.1.3a2.49,2.49,0,0,1-.1.8v1a2.77,2.77,0,0,0,.1.9c.1.3.1.5.2.6a4.1,4.1,0,0,0,.1,1.1,2.05,2.05,0,0,1,0,1.1.1.1,0,0,1-.1.1l-.1.1h0v.3c-.4-.1-.6.1-.7.5,0,.1,0,.1.1.1s.1,0,0,.1h0v.1c-.1.1,0,.3.1.4h0a.37.37,0,0,0,.3-.1.31.31,0,0,1,.2-.1c.1,0,.3.1.7.2a1.61,1.61,0,0,0,.9.3h0l-.3,1.1a1.63,1.63,0,0,0-.3.6c-.1.4-.2.6-.2.7h-.1c0-.1,0-.1.1-.1v-.1c-.1,0-.2.1-.4.2a2.65,2.65,0,0,0-.6.5c-.2.2-.4.3-.6.5s-.3.3-.3.4l-.1.4q0,.15.3.3a1.24,1.24,0,0,1,.3.2h.3a.31.31,0,0,1,.2.1V34c-.1.2-.2.4-.4.4h-.3c-.1,0-.2-.1-.3-.1H21.4a.37.37,0,0,0-.3.1c-.1.1-.3.2-.4.3s-.3.2-.4.4-.2.2-.2.3,0,.3.1.5a.52.52,0,0,0,.4.2.9.9,0,0,0,.5.1h.5a.37.37,0,0,0,.3.1h.4a.37.37,0,0,1,.3.1c.1.1.1.1.1.2a2.79,2.79,0,0,1-.7,1.3,2.82,2.82,0,0,0-.7,1.1c-.1.2,0,.4,0,.5a.45.45,0,0,1,0,.5,6.89,6.89,0,0,1-.3.8,6.89,6.89,0,0,0-.3.8,1.21,1.21,0,0,1-.1-.5,4.48,4.48,0,0,0-.1-1.1V38.3a.54.54,0,0,1,.3-.4,1.38,1.38,0,0,0,.4-.3.45.45,0,0,0,0-.5c0-.1-.1-.2-.2-.4h-.3a1.85,1.85,0,0,1-.7-.2,1.85,1.85,0,0,0-.7-.2,2,2,0,0,0-.9.2,2.09,2.09,0,0,0-.6.4,2.65,2.65,0,0,0-.5.6,4.35,4.35,0,0,1-.7.6h0v.6c.2.1.4.1.6.2a.85.85,0,0,0,.7,0,1.38,1.38,0,0,0,.4.3c.2.1.3.2.2.4v1.5a12.1,12.1,0,0,0,.1,1.9c.1.7.2,1.2.3,1.8a2.14,2.14,0,0,0,.6,1h0a1.42,1.42,0,0,1-.2.6c-.1.2-.3.4-.4.6a2.18,2.18,0,0,1-.4.5,1.24,1.24,0,0,1-.2.3.37.37,0,0,1-.1.3.37.37,0,0,0,.1.3l-.1.6a.6.6,0,0,1-.1-.4c0-.1-.1-.2-.3-.2h-.2a3.46,3.46,0,0,0-1.1,1,6.53,6.53,0,0,1-1.1,1.2l-.2.7c-.1,0-.1,0-.2-.1s-.1-.1-.2-.1h-.1c-.1.2-.2.3-.4.3a.27.27,0,0,0-.3.3,5.77,5.77,0,0,0,.1,2.6,5.08,5.08,0,0,0,1.1,2.2h.1c.1,0,.2,0,.2-.1s.2-.1.2-.1h0a2.19,2.19,0,0,1-.5.3,1.09,1.09,0,0,1-.5.1c-.2,0-.4-.2-.5-.7s-.2-.9-.3-1.5L13.6,53c-.1-.4-.2-.7-.3-.7h-.1a3,3,0,0,1-.4.3l-.4.4v.1a2.3,2.3,0,0,0,.2,1.4,2.3,2.3,0,0,1,.2,1.4c0,.1,0,.2-.1.2s-.2-.1-.2-.4V53.9c0-.3-.1-.4-.3-.4a.91.91,0,0,0-.5.3c-.2.2-.5.4-.7.6l-.7.7-.5.5-.2,1c-.1,0-.1,0-.1-.1s0-.1-.1-.2H9.2a1.27,1.27,0,0,0-.6.1,1.27,1.27,0,0,1-.6.1H7.6c-.2,0-.3-.1-.4-.1v-.7c0-.2-.1-.4-.1-.7a1.75,1.75,0,0,0-.1-.5V53.3a4.48,4.48,0,0,0-.1-1.2,3.55,3.55,0,0,0-.1-.7v-.9a1,1,0,0,0-.4-.7H6.2a1.7,1.7,0,0,1-.7-.1,2,2,0,0,0-.8-.1,1.42,1.42,0,0,0-.6.2c-.2.2-.4.3-.5.5s-.1.2-.2.2-.1.1-.2.3,0,.4.2.6a1.85,1.85,0,0,0,.7.2h.4a2,2,0,0,0,.5.1,2,2,0,0,1,.5.1c.1.1.3.1.4.2a.52.52,0,0,1,.2.4c0,.3-.2.6-.6,1a8.18,8.18,0,0,0-.9.8h0v.1a1.35,1.35,0,0,0,0,.9c0,.3.1.6.1.9.1.1.1.1.1.3a.37.37,0,0,1-.1.3H4c-.1,0-.1-.1-.1-.3V54.2h0c0-.1.2-.3.4-.5s.4-.3.5-.4h0c.1-.1,0-.3-.1-.4l-.3-.3a2.08,2.08,0,0,1-1.1-.1,2.15,2.15,0,0,0-1.1-.2,1.22,1.22,0,0,0-.9.4,2.1,2.1,0,0,0-.6.8h0c-.1,0-.1,0-.1-.1a.1.1,0,0,0-.1-.1l.1-.5c0-.1.1-.1.2-.2s.3-.2.4-.3.3-.2.5-.4a.76.76,0,0,0,.2-.4.37.37,0,0,0-.2-.5,1.42,1.42,0,0,0-.6-.2H.9c-.1,0-.1-.1-.2-.2v-.2c0-.1,0-.1.1-.2s.1-.1.2-.1h.2a2.77,2.77,0,0,1,.9.1,3.08,3.08,0,0,0,1,.1h.4c.1-.1.3-.2.5-.4l.6-.6.6-.6a.91.91,0,0,0,.3-.5h0L5,47.8H4.3c-.3-.1-.5-.5-.7-1.1s-.2-1.2-.3-1.9a14.77,14.77,0,0,1-.1-2.1,7.12,7.12,0,0,0-.1-1.6c-.1-.1-.2-.1-.2-.2a.37.37,0,0,0-.3-.1c-.1,0-.1,0-.2.1a.31.31,0,0,1-.2.1h0a2,2,0,0,0,.1-.8,2.2,2.2,0,0,1,.1-.8v-.1c0,.1.1.1.1.2s.1.1.2.1a.91.91,0,0,0,.5-.3c.2-.2.3-.4.4-.5v-.3a.37.37,0,0,0-.1-.3,2.77,2.77,0,0,0-.1-.9,1.1,1.1,0,0,1,0-.8h.1c.1,0,.2.1.2.3V38c0,.2.2.3.4.3h.1a7.37,7.37,0,0,0,.6-.5,1.7,1.7,0,0,0,.6-.6l.5-.5a1.38,1.38,0,0,1,.3-.4c.2-.1.3-.2.3-.4a.85.85,0,0,0,0-.7,1.85,1.85,0,0,0-.2-.7c-.1-.2-.1-.5-.2-.7a.85.85,0,0,1,0-.7h.1c.1,0,.2.1.2.3a1.27,1.27,0,0,1,.1.6v1.2l.3.4h0c.1,0,.1,0,.2-.1l.2-.2c.1,0,.1-.1.2-.2l.2-.2h0v-1a10,10,0,0,0-.2-1.6,5.78,5.78,0,0,0-.5-1.4c-.2-.4-.4-.6-.7-.6H6a1,1,0,0,1-.4.5c-.2.2-.4.3-.6.5s-.4.3-.6.5a.86.86,0,0,0-.3.6.37.37,0,0,0,.1.3c.1.1.1.3.2.4a2.19,2.19,0,0,1,.3.5,1.85,1.85,0,0,0,.2.7A.88.88,0,0,1,5,35c0,.1-.1.2-.2.3a.76.76,0,0,1-.4.2,1.24,1.24,0,0,1-.2-.3l-.3-.6a1.42,1.42,0,0,1-.2-.6.77.77,0,0,1-.1-.3l-.3-.4h0c-.1,0-.2,0-.2.1s-.2.1-.3.2a1.39,1.39,0,0,0,0-.9c0-.3-.1-.6-.1-.9l.4-2a.75.75,0,0,1-.1-.5,2.49,2.49,0,0,1,.1-.8c0-.3.1-.5.1-.8a3.54,3.54,0,0,1,.1-.6v-.7a.37.37,0,0,0,.1-.3v.1l.2-1a.37.37,0,0,0-.1-.3c-.1-.1-.1-.2-.2-.2l.2-1v-.2c0-.1.1-.3.1-.4s.1-.3.1-.4a1.3,1.3,0,0,0,0-1l.2-.9-.1-.1a2.16,2.16,0,0,0,.1-1.1,3.33,3.33,0,0,1,0-1v-.2l.1-.1.2-1c.1-.2,0-.4-.2-.6l.3-1.5c0-.1,0-.2-.1-.2h0v-.2l.2-.8a2,2,0,0,1-.1-1.1c.1-.2.1-.4.2-.6s.1-.3.2-.5a.85.85,0,0,0,0-.8l.2-1.1c-.1-.1-.1-.2-.1-.5V8.5a2.77,2.77,0,0,1,.1-.9A3.54,3.54,0,0,1,5,7a.35.35,0,0,1,.1-.2.35.35,0,0,0,.1-.2c0-.1.1-.1.1-.2V6.2a.77.77,0,0,1,.1-.3c0-.2.1-.4.1-.6s.1-.4,0-.6-.1-.3-.1-.4l.2-1a2,2,0,0,1-.1-.5V2.3h0a.1.1,0,0,0,.1-.1.1.1,0,0,1,.1-.1L5.9.9c0-.1.2-.1.4-.2A1.09,1.09,0,0,1,6.8.6H7a2,2,0,0,1,.8.1c.2,0,.5.1.8.1A1.27,1.27,0,0,0,9.2.7,1.27,1.27,0,0,1,9.8.6c.1,0,.1,0,.2.1h2.2a.9.9,0,0,1,.5-.1H14c.3,0,.6.1.9.1h.7c.1,0,.2-.1.3-.1h1a1.42,1.42,0,0,1,.6.2.78.78,0,0,1,.4.4,1.27,1.27,0,0,1,.1.6c0,.1,0,.1-.1.1l-.1.1a.37.37,0,0,1-.1.3.44.44,0,0,1-.1.3,1.7,1.7,0,0,0-.1.7c0,.2-.1.4-.1.6a1.49,1.49,0,0,1,.2.9c-.1.2-.1.4-.2.5L17,7l.1.2-.3,1.5.2.2v.2c0,.1-.1.3-.1.4s-.1.2-.2.3a.31.31,0,0,1-.1.2c0,.1,0,.2-.1.2v.6a1.27,1.27,0,0,1-.1.6h0v.2l-.3,1.3a.85.85,0,0,1,0,.7c0,.3-.1.5-.1.7V15a4.33,4.33,0,0,0-.1.5c0,.2-.1.3-.1.5v.2a2,2,0,0,0-.1.5c0,.2-.1.5-.1.7a2,2,0,0,0-.1.7,4.33,4.33,0,0,1-.1.5c.1.1.1.4.1.7s0,.6-.1.7-.1.2-.1.3-.1.2-.1.3v.2c0,.1,0,.2.1.2l-.2.9a.31.31,0,0,1,.1.2c0,.1,0,.1-.1.2s-.1.3-.1.4-.1.3-.1.4l-.2-.2a.31.31,0,0,0-.2-.1.91.91,0,0,0-.5.3c-.2.2-.5.4-.7.6a4.35,4.35,0,0,0-.6.7.91.91,0,0,0-.3.5,1.75,1.75,0,0,0,.1.5l.3.9c.1.3.2.7.3,1a3.93,3.93,0,0,1,.2.6V28h.1v.8c0,.2.1.3.1.5s.1.2.2.2h.2c.1,0,.1.1.1.2v.4c0,.1,0,.2-.1.2a.37.37,0,0,1-.1.3,2,2,0,0,0-.9.5,6,6,0,0,1-.8.8V32h0a1.1,1.1,0,0,0,0,.8c0,.2.1.5.1.7s.1.5.1.7v.7h0V35h0a.85.85,0,0,0,0,.7c0,.2.1.5.1.7a1.7,1.7,0,0,1,.1.7v.7a2.09,2.09,0,0,1-.4.6.68.68,0,0,0-.4.6.37.37,0,0,0,.1.3.76.76,0,0,1,.2.4c.1.1.2.3.3.4l.2.2h.7a.91.91,0,0,0,.5-.3h0c.1,0,.2,0,.2.1s.1.1.2.1a.86.86,0,0,0,.6-.3l.6-.6.6-.6c.2-.2.4-.3.5-.2v-.2c0-.2,0-.3-.2-.4a6.13,6.13,0,0,1-.6-.4,4.35,4.35,0,0,0-.7-.4,1.21,1.21,0,0,1-.5-.5v-.7c0-.1.1-.2.1-.3a.22.22,0,0,1,.2-.2c.1,0,.1.1.1.3a1.27,1.27,0,0,0,.1.6,1.33,1.33,0,0,0,.5.6,1.92,1.92,0,0,0,1.2.3h.8a2.65,2.65,0,0,0,.6-.5c.2-.2.4-.4.4-.6.1-.4,0-.6-.4-.6s-.7-.1-1.1-.2a2,2,0,0,1-1.1-.3q-.45-.15-.3-.9h0a1.38,1.38,0,0,1,.4-.3c.2-.1.3-.3.5-.4s.3-.3.4-.4.2-.3.2-.4a2.44,2.44,0,0,0,0-1.2c-.1-.4-.1-.8-.2-1.2s-.1-.8-.2-1.1a4,4,0,0,1,0-1.1v-.2c0-.1,0-.1.1-.2l.2-1.2c.1-.2.4-.4.7-.8a3.28,3.28,0,0,0,.6-.8,1.41,1.41,0,0,0-.1-.9A2.77,2.77,0,0,1,18,23a.31.31,0,0,0,.1-.2l.1-.6c.1.1.1.2.1.4v1.3c0,.2.1.3.2.3h.1l.7-.6c.1,0,.1-.1.1-.2v-.1h0l-.1-.1a.1.1,0,0,1,.1-.1l.1-.1a1.27,1.27,0,0,0-.1-.6.85.85,0,0,1,0-.7.22.22,0,0,1,.2.2v.8a.22.22,0,0,0,.2.2.35.35,0,0,0,.4-.4h.1a.91.91,0,0,0,.5-.3,4.35,4.35,0,0,1,.7-.6c.2-.2.4-.5.6-.7a1.73,1.73,0,0,0,.3-.4.37.37,0,0,1,.1-.3c0-.1,0-.2-.1-.2a3.08,3.08,0,0,0-.1-1c-.1-.3-.1-.6-.2-.9-.1,0-.1,0-.1.1s0,.1-.1.1-.1-.1-.1-.2l.2-.2a.31.31,0,0,1,.2-.1h0a1.09,1.09,0,0,0,.1.5c.1.2.2.2.4.2h0c0,.1,0,.1-.1.2s-.1.1-.1.2a.6.6,0,0,0,.1.4c.1.2.2.3.2.4a.1.1,0,0,1-.1.1l-.1.1c-.1.1,0,.1.1.2h.2a2.18,2.18,0,0,0,.5-.4,1.63,1.63,0,0,0,.3-.6v-.9c-.1-.4-.1-.9-.2-1.4a5,5,0,0,0-.4-1.3c-.2-.4-.3-.6-.4-.6s-.1,0-.1.1l-.1.1V15h0l.1-.1v-.2h0c-.1,0-.2.1-.5.3s-.5.4-.7.6-.4.5-.6.7-.3.3-.3.4V17a.22.22,0,0,0,.2.2h.2c.1,0,.1,0,.1.1a.1.1,0,0,1-.1.1.1.1,0,0,0-.1.1c-.1.2,0,.3,0,.5s.2.3.2.5.2.3.2.5a.64.64,0,0,1,0,.6c0,.1-.1.2-.2.3a.37.37,0,0,1-.3.1c-.1,0-.1,0-.2-.1s0-.2-.1-.2,0-.2-.1-.2-.1-.1-.2-.1a.45.45,0,0,0,0-.5c-.1-.1-.1-.3-.2-.4a.52.52,0,0,1-.2-.4.6.6,0,0,1-.1-.4.31.31,0,0,1,.1-.2c0-.1,0-.1.1-.2l.2-1,.1-.1.2-.9v-.2l.1-.1a.1.1,0,0,1,.1-.1c.1-.6.3-1.1.4-1.7a8.51,8.51,0,0,1,.6-1.7.1.1,0,0,1,.1-.1c.1-.1.1-.1.2-.1l.6-2.5a4.88,4.88,0,0,0,.3-.7.91.91,0,0,1,.3-.7,6.37,6.37,0,0,0,.2-.7c.1-.3.2-.6.3-1l.3-.9a1.07,1.07,0,0,1,.3-.5l.2-1,.2-.2L24.7,2a2.19,2.19,0,0,1,.3-.5,1.42,1.42,0,0,1,.6-.2,1.27,1.27,0,0,1,.6-.1h.9l.2.1H28c.1-.1.2-.1.4-.1a.37.37,0,0,1,.3.1c.1,0,.2.1.3.1a.37.37,0,0,0,.3-.1c.1,0,.2-.1.3-.1H30a.76.76,0,0,1,.4.1.31.31,0,0,1,.2-.1h6.8a1.38,1.38,0,0,0,.3.4.76.76,0,0,1,.2.4.9.9,0,0,1,.1.5,2.49,2.49,0,0,1-.1.8c0,.2-.1.3-.1.4a1.69,1.69,0,0,1-.2.5c-.1,0-.1.1-.2.2v.4l.2.1c.1.1,0,.2,0,.5a1.09,1.09,0,0,0-.1.5v.4h0v.1a.1.1,0,0,1-.1-.1c-.1,0-.1,0-.1-.1h0c-.2,0-.3.1-.3.2s0,.3.2.3a.37.37,0,0,0,.3-.1.37.37,0,0,1,.1.3v.5c0,.2-.1.4-.1.6s-.1.3-.1.4a.35.35,0,0,1-.1.2c-.1.1-.1.1-.1.2v.4c0,.2.1.3.1.4l-.2.8V11a1.27,1.27,0,0,1-.1.6.37.37,0,0,1-.1.3l-.3,1.3a2,2,0,0,1,.1.8c0,.1-.1.2-.1.3s-.1.2-.2.4-.1.1-.2.1-.1.1-.1.2,0,.2.1.3.2.2.1.4a.35.35,0,0,1-.1.2c-.1.1-.1.1-.1.2s0,.2.1.2v.2H36a.27.27,0,0,0-.3.3c-.1.2,0,.3.2.3a.37.37,0,0,0,.3-.1c.1-.1.1-.2.2-.2v.9a.37.37,0,0,0-.3.1c-.1,0-.2.1-.2.3s0,.1.1.2.1.1.2.1a.31.31,0,0,0,.2-.1c0,.3-.1.6-.1.9s-.1.6-.2.9a4.33,4.33,0,0,0-.1.5,1.75,1.75,0,0,0-.1.5c-.1.1-.1.1-.2.1a.1.1,0,0,0-.1.1h.3c.1,0,.1,0,.1.1v.2a.22.22,0,0,1-.2.2c-.1.1-.2.1-.2.2-.1.3,0,.4.3.4h.2c.1,0,.1,0,.1.1v.3l-.4.3v.3c.1.1.1.1,0,.2h0a.31.31,0,0,0-.2-.1.1.1,0,0,1-.1.1.66.66,0,0,0,.1.6,1.48,1.48,0,0,1,.1.7,1.09,1.09,0,0,0-.1.5,4.33,4.33,0,0,0-.1.5l-.1.1-.1.1c-.1.2,0,.4.2.4l-.1.3h0c.1-.2,0-.3-.2-.3H35a.35.35,0,0,0-.2.1l-.1.5c0,.1-.1.1-.3.1s-.2,0-.3.1l-.1.5c-.1.1-.2.2-.3.2h-.2c-.1,0-.1.1-.2.2v.1c.1,0,.1.1,0,.2a.22.22,0,0,1-.2.2c-.1,0-.1.1-.2.2a.6.6,0,0,0,.1.4h.2c.1.1.1.1.1.2h0l-.3.3v.3c0,.1.1.1.2.1s.1.1.2.1v.2c0,.1,0,.2-.1.2s-.1.1-.1.2,0,.4.2.4.2.2.2.3-.1.1-.2.2-.1.1-.2.2,0,.3.2.4a.76.76,0,0,0,.4.2.52.52,0,0,0,.4-.2c.1-.1.2-.2.3-.2a1.27,1.27,0,0,0-.1.6c0,.2-.1.4-.1.6a2.36,2.36,0,0,0-.8.9,1.34,1.34,0,0,1-.8.7c-.1.1-.1.1-.1.2s0,.4,0,.5h.2a.22.22,0,0,1,.2.2c-.1.2-.1.3-.2.2s-.2,0-.2.1-.1.3,0,.4.1.1.2.2a.35.35,0,0,1,.2.1c.1,0,.1.1,0,.2a.35.35,0,0,1-.1.2.35.35,0,0,0-.1.2v.3c0,.1,0,.1-.1.1h0a.75.75,0,0,1-.1-.5c0-.2-.1-.4-.1-.6H32v-.2a.35.35,0,0,1,.1-.2h.2a1.76,1.76,0,0,0,.1-.6c0-.1-.1-.2-.5-.2-.1,0-.1,0-.2.1a.1.1,0,0,0-.1.1c0,.1,0,.1.1.1s.1.1.1.2a.22.22,0,0,1-.2.2c-.1,0-.1,0-.1-.1a.1.1,0,0,0-.1-.1c-.1,0-.1,0-.1.1v.5a2,2,0,0,0,.1.5c.1-.1.2-.2.3-.2s.2.1.2.2a.22.22,0,0,1-.2.2h-.3v.4c0,.1.1.3.1.4h.2a2487910809583.16,2487910809583.16,0,0,1,.2.2h0l-.3.3h0V39a.76.76,0,0,0,.2.4c.1.1.1.3.2.4l.2.2c.1-.1.1-.2.2-.2s.2.1.2.2h0l-.4.2c-.1.1,0,.1.1.2l.2.2h.1c.1,0,.1,0,.1-.1v-.2a.22.22,0,0,1,.2-.2c.1,0,.2.1.1.3s.1.3.2.3h.7c.1,0,.2-.1.3-.2s.1-.3.2-.4a.76.76,0,0,0,.1-.4c0-.1.1-.2.1-.3l.2-1.2c-.1,0-.1-.1,0-.2a.76.76,0,0,1,.2-.4c.1-.1.1-.3.2-.4h.1l.1.1.1.1a.1.1,0,0,1-.1.1l-.1.1a.37.37,0,0,0,.3-.1c.1-.1.3-.2.4-.3a1.38,1.38,0,0,0,.4-.3l.2-.2v-.3c.1-.2.2-.3.3-.2a.19.19,0,0,0,.3-.1v-.8h-.1c0,.1,0,.2-.1.2s-.2.1-.3.1-.2-.1-.1-.3v-.1h0c.1,0,.1-.1.2-.1s.1-.1.2-.1h0v-.4l-.2-.2-.2-.2a1.09,1.09,0,0,1,.1-.5c-.1-.4-.2-.7-.3-1l.2-.9.2-.3H37c.1-.1.1-.1.1-.2a.75.75,0,0,0-.1-.5l.1-.1c0,.1.1.1.2.1a.37.37,0,0,0,.3-.1c.1-.1.2-.1.2-.2s-.1-.3-.2-.3h-.2a.31.31,0,0,0-.2.1v-.1c.1-.2.1-.4.2-.6a1.42,1.42,0,0,0,.2-.6v-.4c.1,0,.2,0,.1.1v.1c.1,0,.2,0,.2-.1a.22.22,0,0,1,.2-.2v-.2c-.2.1-.3.1-.3-.1v-.4a.22.22,0,0,1,.2-.2.22.22,0,0,0,.2-.2v-.3l.2-1v-.2l.3-1.3a.35.35,0,0,0,.1-.2c.1-.1.1-.2.2-.3s.1-.2.2-.3a.31.31,0,0,0,.1-.2c0-.2,0-.3-.2-.3.1-.2.2-.3.2-.4l.1.1a.35.35,0,0,0,.2.1.27.27,0,0,0,.3-.3c0-.2-.1-.2-.2-.2s-.2.1-.3.2l.1-.6.2-.2a.37.37,0,0,0,.1-.3v-.6c0-.1.1-.2.2-.3.1-.3.1-.5.2-.6s.1-.2.2-.4v-.5c0-.1,0-.1.1-.1a7961314590657.68,7961314590657.68,0,0,0,.2.2c.1,0,.1,0,.1-.1a.1.1,0,0,1,.1-.1h0V19h0l-.1.1c-.1.1-.1.1-.2.1h0V19c0-.1.1-.2.1-.4s.1-.3.1-.5.1-.3.2-.4.1-.2.2-.2h.4v-.1h0a.22.22,0,0,0-.2-.2V17c.1-.2.1-.4.2-.6a1.27,1.27,0,0,0,.1-.6c.1-.1.1-.1.2-.1s.2,0,.2-.2,0-.2-.2-.3l.2-1.1.2-.3.3-1.4.1-.1c0-.1.1-.1.2-.2l.2-.3c0-.1,0-.2-.1-.2v-.3c0-.1.1-.2.1-.4a.52.52,0,0,1,.2-.4l.5-1.6a.1.1,0,0,1,.1-.1.1.1,0,0,1,.1-.1c.1-.1.1-.3.2-.4s.1-.3.2-.4V7.1a1.69,1.69,0,0,1,.2-.5,1.38,1.38,0,0,1,.3-.4l.2-.7h.2c.1,0,.1-.1.1-.2s0-.1-.1-.1h-.1V5c0-.1,0-.2.1-.2.1-.2.2-.5.3-.7l.3-.6a.31.31,0,0,0-.1-.2V3.1c.1-.1.1-.3.2-.4s.1-.2.1-.4a.6.6,0,0,0,.1-.4V1.5a1.16,1.16,0,0,1,.6-.8h.1a.22.22,0,0,0,.2-.2V.3h0L51,.2h.1c.1,0,.1,0,.1.1h4c.5,0,.9.1,1.2.1h.7c.1-.1.2-.2.3-.2h.9l.2.2c.1.1.1.2.2.2V.7a2.19,2.19,0,0,1-.3.5c0,.1-.1.2-.1.4v.6c-.1.2-.1.3-.2.4a.76.76,0,0,0-.2.4v.5a1.69,1.69,0,0,1-.2.5,1.85,1.85,0,0,0-.2.7,2.12,2.12,0,0,1-.3.7c-.1.2-.2.4-.3.4a.1.1,0,0,1-.1.1v.7c-.1.2-.1.4-.2.5a1.07,1.07,0,0,0-.2.6v.5a.31.31,0,0,1-.1.2c-.1.1-.1.3-.2.4s-.1.3-.2.4a.31.31,0,0,0-.1.2l-.3,1.5A3.7,3.7,0,0,0,55,12c-.1.4-.2.8-.3,1.1v.4l.1.2a1.63,1.63,0,0,0-.3.6,1,1,0,0,1-.4.5v1l-.4,1h-.1v.1h.1l-.2,1c-.1.1-.1.2-.2.4a.44.44,0,0,1-.1.3H53v.1c.1.1.1.1.1.2v.4c0,.1,0,.2-.1.2l-.2.8c-.1.1-.2.2-.2.3a.44.44,0,0,0-.1.3v.3a.19.19,0,0,1,0,.3,5.36,5.36,0,0,1-.5,1.1,3.09,3.09,0,0,0-.5,1V24c0,.1,0,.1-.1.1a.1.1,0,0,1-.1.1l-.5,2-.1.2a7.47,7.47,0,0,0-.2,1.1,2.81,2.81,0,0,1-.5,1.1l-.2,1c-.1.1-.1.1-.1.2s-.1.2-.1.3a.44.44,0,0,1-.1.3.76.76,0,0,1-.1.4,6.37,6.37,0,0,0-.2.7c-.1.2-.1.4-.2.6a.76.76,0,0,0-.1.4c-.1.3-.2.5-.3.8a1.14,1.14,0,0,0-.3.8.6.6,0,0,1-.1.4.6.6,0,0,1-.1.4c0,.1-.1.1-.1.2a.35.35,0,0,1-.2.1l-.7,3.3a.54.54,0,0,0-.3.4c-.1.2-.1.3-.2.5V40a2.51,2.51,0,0,1-.4.7,2,2,0,0,0-.4.8v.8a2.51,2.51,0,0,1-.4.7,2,2,0,0,0-.4.8.31.31,0,0,1-.1.2c0,.1,0,.2-.1.2.1.1.1.2,0,.2a.22.22,0,0,1-.2.2,3.18,3.18,0,0,1-.3.9l-.3.9c0,.1,0,.1-.1.2v.2l-.2.2v.3c0,.1-.1.2-.1.3s0,.1-.1.1c-.1.3-.1.7-.2,1a3.55,3.55,0,0,0-.2,1c-.1.1-.1.1-.2.1a.1.1,0,0,0-.1.1c-.1.2-.1.7-.3,1.3s-.3,1.2-.4,1.6a.1.1,0,0,1-.1.1c-.1,0-.1.1-.1.2l-.2,1.2-.3.2-.2,1a1.76,1.76,0,0,1-.4.5,1.42,1.42,0,0,1-.6.2h-3a.37.37,0,0,1-.3-.1c-.1,0-.2-.1-.3-.1a.6.6,0,0,0-.4.1c-.1,0-.3.1-.4.1H31.2l-.2.1h-.8C30,57.6,29.9,57.6,29.8,57.5ZM1.1,48h0c.2,0,.2.1.2.3s0,.3-.1.4,0,.1-.1.2S1,49,.9,49h0v-.1Zm.1-1.1Zm0,.3h0c0,.1-.1.1,0,0Zm0,.1Zm.9-7.9Zm1-2.9h0v0Zm.1.4ZM4,46a1.46,1.46,0,0,0,.4,1.5,3.53,3.53,0,0,0,1.7.4,1.63,1.63,0,0,0,.9-.4,2.23,2.23,0,0,0,.7-.7c.1-.2,0-.3,0-.4l-.3-.3H6.7c-.3,0-.6-.1-.9-.1a6.89,6.89,0,0,1-.8-.3.37.37,0,0,1-.2-.5.86.86,0,0,1,.3-.6l.5-.5.5-.5a.71.71,0,0,0,.3-.6V42c0-.5-.1-1-.1-1.5a7.84,7.84,0,0,1-.2-1.4c-.1-.4-.2-.6-.4-.6a1.69,1.69,0,0,0-.5.2,2.65,2.65,0,0,0-.6.5,2.65,2.65,0,0,0-.5.6,1.33,1.33,0,0,0-.3.5,4.33,4.33,0,0,0-.1,1.6,8.6,8.6,0,0,1,.1,1.6c.1,0,.1.2.2.4v1.5Q3.85,45.85,4,46Zm2.4,4.3a.79.79,0,0,1,.8.5A2.13,2.13,0,0,1,7.5,52a4.29,4.29,0,0,1,0,1.6v1.7a5.28,5.28,0,0,0,.1,1.3q.15.6.6.6a.76.76,0,0,0,.4-.1,1.76,1.76,0,0,0,.5-.4l.5-.5a1.38,1.38,0,0,1,.3-.4v-.3a1.7,1.7,0,0,0,0-1c0-.3-.1-.6-.1-1a3.08,3.08,0,0,1-.1-1v-1a4.65,4.65,0,0,1-.3-.9v-1c0-.1.2-.3.4-.6a2.25,2.25,0,0,1,.5-.5c0-.2,0-.3-.2-.4a2.19,2.19,0,0,0-.5-.3c-.2-.1-.4-.1-.6-.2H8.2a.1.1,0,0,1-.1-.1H7.3a.91.91,0,0,0-.5.3l-.6.6c-.2.2-.4.5-.6.7a.91.91,0,0,0-.3.5c-.1.2,0,.3.1.4s.3.2.4.2h.1A2.81,2.81,0,0,0,6.4,50.3Zm1.2-5.1a1.27,1.27,0,0,1,.6.1,1.27,1.27,0,0,0,.6.1H9a1,1,0,0,1,.4-.5c.2-.2.4-.3.6-.5s.4-.3.6-.5a1.76,1.76,0,0,0,.4-.5.37.37,0,0,0-.1-.3l-.2-.2a1.76,1.76,0,0,1-.6-.1,1.27,1.27,0,0,0-.6-.1,3.58,3.58,0,0,1-.4-1.1V39.1a1.28,1.28,0,0,0-.4-1V36.9c0-.2-.1-.5-.1-.7s-.2-.3-.4-.3a1.22,1.22,0,0,0-.9.4,6,6,0,0,0-.8.8v.2a6.15,6.15,0,0,0-.1,1.4,7.57,7.57,0,0,0,.1,1.5c.1.5.1,1,.2,1.5a7.08,7.08,0,0,1,.1,1.4c.1,0,.1,0,.1.1v.2l-.5.4c-.1.2-.1.3-.2.3v.3a.49.49,0,0,0,.3.6,2.2,2.2,0,0,0,.8.1h.1C7.5,45.2,7.5,45.2,7.6,45.2Zm-1-14.9a8.92,8.92,0,0,1,.5,1c.2.5.3,1,.5,1.5A10.26,10.26,0,0,1,8,34.2a3.22,3.22,0,0,0,.2.6c.1-.1.3-.2.5-.4s.3-.3.3-.5a.37.37,0,0,0,.1-.3.76.76,0,0,1,.1-.4c.1,0,0,0,0-.1s0,0,.1.2l.1.1a.1.1,0,0,0,.1.1h.1c.1,0,.2-.1.5-.3a5,5,0,0,0,.8-.7l.8-.8a2.09,2.09,0,0,0,.4-.6,1.39,1.39,0,0,0,0-.9,1.39,1.39,0,0,1,0-.9h0c.1.1.1.2.1.4v.5c0,.2,0,.3.1.4s.1.2.3.2.2-.1.3-.2.3-.2.3-.3l.1-.1.1-.1a1.91,1.91,0,0,0,0-1.1c-.1-.5-.2-1-.3-1.6s-.3-1-.5-1.4-.4-.6-.6-.6h-.2l-.4.4a4.35,4.35,0,0,1-.7.6c-.2.2-.5.4-.6.6a.91.91,0,0,0-.3.5h0c.1.1.2.3.4.5a4.35,4.35,0,0,1,.4.7c.1.2.2.5.3.7a.85.85,0,0,1,0,.7c0,.1-.1.2-.2.3a.37.37,0,0,1-.3.1c-.2,0-.3-.1-.4-.4a1.88,1.88,0,0,1-.2-.8c-.1-.3-.1-.6-.2-.8s-.2-.4-.4-.4-.1,0-.2.1-.2.2-.3.2l-.3.3c-.1.1-.1.1-.1.2a2.74,2.74,0,0,1-.5.4l-.4.4-.2.2c-.5.2-.6.2-.6.4Zm2.1.9a.1.1,0,0,1,.1-.1c.1,0,.1.1.1.2s.1.3.1.5v.9c-.1,0-.1-.1-.1-.2a4.33,4.33,0,0,1-.1-.5.9.9,0,0,0-.1-.5Zm1.7,18.6v.9a7.08,7.08,0,0,0,.1,1.4,5.9,5.9,0,0,0,.2,1.4,2.19,2.19,0,0,0,.3.8h.2c.2,0,.3-.1.5-.2a1.76,1.76,0,0,0,.5-.4l.5-.5.4-.4v-.3a3.81,3.81,0,0,0,.1-1.5,9.15,9.15,0,0,0-.1-1.6c-.1-.5-.1-1.1-.2-1.6a7.57,7.57,0,0,1-.1-1.5c-.1-.1-.1-.1-.1-.3v-.3a.31.31,0,0,0,.1-.2h0c-.2-.2-.4-.4-.6-.4h-.8a.59.59,0,0,0-.5-.2,3.54,3.54,0,0,1-.6-.1l-.8.7-.3.3c-.1.1-.2.2-.2.3H9c0,.2.1.3.3.5a.73.73,0,0,0,.6.2h.4c.1,0,.1,0,.2.1a.31.31,0,0,0,.2.1h.2a2.92,2.92,0,0,1,.9.2.67.67,0,0,1,.4.7,1.53,1.53,0,0,1-.5.7c-.3.2-.5.4-.7.5s-.1.2-.2.2C10.5,49.6,10.4,49.7,10.4,49.8Zm.1-7.5a.9.9,0,0,1,.5.1h1.1a.76.76,0,0,0,.4-.2,1.38,1.38,0,0,1,.4-.3c.1-.1.3-.2.5-.4v-.2c.1-.4,0-.6-.4-.7a3.59,3.59,0,0,0-1.1-.2,3.59,3.59,0,0,1-1.1-.2.53.53,0,0,1-.4-.7.55.55,0,0,1,.3-.5,1.76,1.76,0,0,1,.5-.4c.2-.1.3-.3.5-.4a2.19,2.19,0,0,0,.3-.5v-.4l.1-.1h0v-1c0-.5-.1-.9-.1-1.3a5.64,5.64,0,0,0-.4-1.2c-.2-.3-.3-.5-.5-.5a.76.76,0,0,0-.4.2c-.2.2-.4.3-.5.5s-.3.4-.5.6a1.69,1.69,0,0,0-.2.5.31.31,0,0,1-.1.2v.2a3.34,3.34,0,0,1,.3,1.5v3.6a2.65,2.65,0,0,0,.3,1.4c.1.2.2.2.4.2C10.3,42.1,10.4,42.1,10.5,42.3Zm2.6,4.2a1.44,1.44,0,0,1,.2.9v1.8a10.87,10.87,0,0,0,.1,1.8c.1.5.2.8.5.8a1.38,1.38,0,0,0,.9-.5l.7-.7a.76.76,0,0,0,.2-.4,3.79,3.79,0,0,0,0-1.5l-.3-1.5-.3-1.5a3.79,3.79,0,0,1,0-1.5,1.33,1.33,0,0,1,.5-.6,1,1,0,0,0,.5-.6c0-.2,0-.4-.2-.5l-.6-.3a2,2,0,0,0-.8-.1h-.6a.37.37,0,0,0-.3-.1,3.93,3.93,0,0,0-.6.2,1.79,1.79,0,0,0-.7.5c-.2.2-.5.4-.7.6a.91.91,0,0,0-.3.5v.1h0V44a.76.76,0,0,1-.1.4l.2.2h.4a1,1,0,0,1,1,.5A1.82,1.82,0,0,1,13.1,46.5ZM11.6,57.6Zm.2-29.3c.1,0,.1.1.1.3s.1.3.1.4v.1c0,.1,0,.1-.1.1a.76.76,0,0,1-.1-.4A.45.45,0,0,1,11.8,28.3Zm2.6-2.6a.22.22,0,0,1,.2.2c0,.2,0,.3-.1.4s-.1-.1-.1-.3Zm.2.6h0c0,.1-.1.1,0,0Zm-.1.6h0V27C14.6,27,14.5,27,14.5,26.9Zm1.6,17.7a3.11,3.11,0,0,0-.1,1.1,7.57,7.57,0,0,0,.1,1.5c.1.5.2.9.3,1.3s.3.6.5.6h.2a5.72,5.72,0,0,0,.7-.8c.3-.3.6-.5.8-.7v-.1a.3.3,0,0,0,0-.4v-.4l-.1-.1a11,11,0,0,0-.2-2.6,11.11,11.11,0,0,1-.1-2.6.75.75,0,0,1-.1-.5.9.9,0,0,1,.1-.5,1.38,1.38,0,0,0-.4-.3,1.09,1.09,0,0,0-.5-.1h-.4a.9.9,0,0,1-.5-.1.75.75,0,0,0-.5-.1,1.46,1.46,0,0,0-.8.5,2.51,2.51,0,0,0-.5.8h0v.1l.3.4h1.3a1.85,1.85,0,0,1,.7.2,2.19,2.19,0,0,1,.5.3.44.44,0,0,1,.1.5h0c-.2.1-.5.4-.9.7A12.25,12.25,0,0,1,16.1,44.6Zm-.7,7.9h0v-.2h0c.1.1.1.2.1.4v.5c-.1-.1-.1-.2-.1-.4S15.3,52.6,15.4,52.5Zm.1,1.1v-.1a.1.1,0,0,1,.1-.1c.1,0,.1.1.1.4v.5h0c-.1-.1-.1-.2-.2-.3Zm.7,3.2h0v0Zm.5-4.2a.51.51,0,0,1,.5-.4c.3,0,.5.1.4.4a2.54,2.54,0,0,1-.2.7,4.88,4.88,0,0,1-.3.7c-.1,0-.1-.1-.1-.2s-.1-.3-.1-.4-.1-.3-.1-.4S16.7,52.7,16.7,52.6Zm1.8-18.3c0,.1.1.1.2.1s.3.1.5.1.3.1.5.1H20a3.93,3.93,0,0,0,.6-.2c.3-.1.5-.4.7-.6l.7-.7a.91.91,0,0,0,.3-.5v-.2c-.1-.3-.3-.4-.7-.5a1.22,1.22,0,0,1-.9-.3,1,1,0,0,1-.2-.7,4.87,4.87,0,0,1-.1-1.2c0-.4-.1-.9-.1-1.3v-.9c-.1,0-.1-.1-.1-.2v-.8c0-.1-.1-.2-.3-.2a.1.1,0,0,1,.1-.1.1.1,0,0,0,.1-.1.56.56,0,0,0-.1-.6,2.18,2.18,0,0,0-.5-.4h0c-.2,0-.3.1-.5.2s-.3.2-.4.4-.3.3-.4.5a.78.78,0,0,1-.4.4v.2c0,.2.1.4.1.7a2.77,2.77,0,0,1,.1.9c0,.3.1.6.1.9V30a.31.31,0,0,0-.1.2.85.85,0,0,0,0,.7,1.1,1.1,0,0,1,0,.8.44.44,0,0,1,.1.5,1.27,1.27,0,0,1-.1.6v.3l-.6.6v.1c-.1.4,0,.6.2.7C17.9,34.3,18.2,34.4,18.5,34.3ZM18.3,50c0-.1,0-.1.1-.2s.1.1,0,.3a.44.44,0,0,1-.1.3h0c-.1,0-.1-.1-.1-.2A.31.31,0,0,0,18.3,50Zm.9-28.9h0v0Zm.1,4.7h0Zm.3,5.8h0c.1.1,0,.1,0,0Zm.1-11.2c0-.1.1-.1,0,0,.1-.1.2,0,.1,0,.1.1,0,.1-.1,0Zm.1,1.1h.1v.1h-.1Zm0,1.2H20l-.1.1Zm.2-2.2h0a.37.37,0,0,1,.3.1l.2.2h-.2l-.1.6a1.69,1.69,0,0,0-.2-.5Zm.2,10.4Zm.1-12.4.1-.1v.1Zm0,1.2c0-.1.1-.1.2-.1v.2A.35.35,0,0,1,20.3,19.7Zm2.5,11.7c.1,0,.1,0,.2.1a.31.31,0,0,0,.2.1,1.26,1.26,0,0,0,.7-.4,1.7,1.7,0,0,0,.6-.6v-.2c0-.1,0-.1.1-.1l.1-.1V30c0-.1,0-.1-.1-.1h-.3c-.1,0-.2.1-.1.2s0,.2-.1.2-.1,0-.1-.1,0-.1.1-.1v-.2h-.7c-.3,0-.5-.1-.8-.1a.85.85,0,0,1-.6-.3c-.2-.1-.2-.3-.2-.6s.1-.3.3-.5l.5-.5.5-.5c.2-.2.3-.3.3-.5a.52.52,0,0,0-.3-.7l.2-.1v-.2a.72.72,0,0,0-.2-.8h0a.35.35,0,0,1,.1-.2c0-.1.1-.1.1-.2v-.4c0-.2-.1-.3-.2-.3l.2-.7a.52.52,0,0,1-.2-.4c0-.2-.1-.3-.4-.3-.1,0-.2.1-.4.2a2.65,2.65,0,0,0-.6.5,2.65,2.65,0,0,1-.6.5c-.2.2-.3.3-.3.4a1.29,1.29,0,0,1,.2.8c0,.4.1.9.1,1.5v3.4a3.73,3.73,0,0,0,.2,1.2c.1.3.2.5.4.5h1C22.5,31.5,22.6,31.5,22.8,31.4Zm-1.9,1.1H21v.1h-.1Zm0,1.1h0v.1h-.1A.1.1,0,0,0,20.9,33.6Zm0-13.5c0-.1,0-.1.1-.1a.1.1,0,0,0,.1-.1v.2C21,20.2,20.9,20.2,20.9,20.1Zm.1,1.1c.1,0,.2,0,.2.1l-.1.1c-.1,0-.1,0-.1-.1Zm.1,2.4h0C21.2,23.7,21.1,23.7,21.1,23.6Zm0,1.2.2-.1v.2A.35.35,0,0,1,21.1,24.8Zm.1,1.1c.1,0,.2,0,.2.1l-.1.1c-.1,0-.1,0-.1-.1S21.2,25.9,21.2,25.9Zm.1,1.1c.1,0,.2,0,.1.1l-.1.1c-.1,0-.1,0-.1-.1Zm0,1.3c0-.1.1-.1.2-.1v.1Zm.1,1.1h0c.1,0,.2,0,.1.1s-.1.1-.2.1Zm0,1.2.1-.1v.2C21.4,30.7,21.4,30.7,21.4,30.6Zm.1,2.3c.1,0,.2,0,.1.1a.1.1,0,0,1-.1.1C21.4,33,21.4,32.9,21.5,32.9Zm.1-12.3c0-.1,0-.1.1-.1s.1,0,.1.1-.1.1-.2.1S21.5,20.6,21.6,20.6Zm0,14.7h0v.1h-.1Zm0-13.6c0-.1,0-.1.1-.1s.1,0,.1.1,0,.1-.2,0Zm.1,2.3c0-.1.1-.1.2-.1s.1,0,.1.1l-.1.1h-.1C21.7,24.2,21.6,24.1,21.7,24Zm.1,1.3c0-.1,0-.1.1-.1h.2c-.1.1-.1.1-.3.1Zm0,1.1c0-.1.1-.1.2-.1s.1,0,.1.1-.1.1-.2.1S21.8,26.5,21.8,26.4Zm.1,1.2h0l.1-.1h.1a.22.22,0,0,1-.2.2C21.8,27.7,21.8,27.7,21.9,27.6Zm.1,2.2c.1,0,.1,0,.2.1l-.1.1C22,30,22,29.9,22,29.8Zm0,1.3c0-.1.1-.1.2-.1s0,.1-.2.1Zm.1-14.8h0c.1-.1.2,0,.2.2C22.1,16.5,22,16.4,22.1,16.3Zm0,1.2c0-.1,0-.1.1-.1s.1,0,.1.1v.1l-.1.1A.31.31,0,0,1,22.1,17.5Zm.1,1.1h0c.1-.1.1,0,.2,0h0c0,.1-.1.1-.2.1S22.1,18.7,22.2,18.6Zm0,1.2c0-.1,0-.1.1-.1s.1.1,0,.2,0,.1-.1.1S22.1,19.9,22.2,19.8Zm0,15.9h.2c0,.1,0,.2-.1.2S22.2,35.8,22.2,35.7Zm0-14.7c0-.1,0-.1.1-.1s.1,0,.1.1-.1.1-.2.1Zm.1,2.3a.1.1,0,0,1,.1-.1c.1,0,.1,0,.1.1s-.1.1-.2.1Zm0,1.2c0-.1,0-.1.1-.1s.1,0,.1.1v.1h-.1C22.3,24.6,22.3,24.6,22.3,24.5Zm0,1.2c0-.1.1-.1.2-.1s.1,0,.1.1-.1.1-.2.1A.1.1,0,0,1,22.3,25.7Zm.1,1.1c0-.1,0-.1.1-.1s.1,0,.1.1-.1.1-.2.1Zm.2-11.2a.22.22,0,0,1,.2-.2c.1,0,.1.1.1.2s-.1.1-.2.1S22.6,15.7,22.6,15.6Zm.1,14.6c.1,0,.1,0,.1.1s-.1.1-.2.2h0v-.1C22.6,30.2,22.6,30.2,22.7,30.2Zm-.1-13.5c0-.1.1-.1.2-.1h.1v.1h0l-.1.1C22.7,16.9,22.6,16.9,22.6,16.7Zm.1,2.4c.1-.1.1-.2.2-.2s.1.1.1.2h-.1C22.8,19.2,22.7,19.2,22.7,19.1Zm.1,15.8c.1,0,.2,0,.2.1l-.2.1Zm0-14.6c0-.1.1-.1.2-.1v.1c0,.1,0,.2-.1.2S22.8,20.4,22.8,20.3Zm0,15.9c0-.1.1-.1.2-.1s0,.1-.2.1Zm.4-5.4c.1-.1.1-.1.2-.1s.1.1,0,.1,0,.1-.1.1S23.2,30.9,23.2,30.8Zm.1-13.6a.22.22,0,0,1,.2-.2c.1,0,.1.1.1.2s-.1.1-.2.1S23.2,17.3,23.3,17.2Zm0-1.2c0-.1.1-.1.2-.1s.1,0,.1.1-.1.1-.2.1S23.3,16.1,23.3,16Zm0,17.1c0-.1,0-.1.1-.1s.1,0,.1.1l-.1.1C23.3,33.2,23.2,33.2,23.3,33.1Zm.1-18.5v.1h0C23.5,14.7,23.5,14.7,23.4,14.6ZM24.6,16v.5c0,.3.1.5.1.8a6.37,6.37,0,0,0,.2.7c.1.2.1.3.2.3h.5c.2,0,.3-.2.3-.4s0-.1-.1-.1-.1,0-.1-.1a.1.1,0,0,1,.1-.1c.1,0,.1,0,.1-.1v-.2c.1-.2,0-.3,0-.4s-.2-.1-.3-.2v-.1h0a.35.35,0,0,1,.1-.2.35.35,0,0,0,.1-.2.44.44,0,0,0-.1-.5.44.44,0,0,1-.1-.5V15h.1a.52.52,0,0,1,.2.4,1.48,1.48,0,0,1,.1.7v1.3h.2a1.33,1.33,0,0,0,.7-.3,5,5,0,0,0,.8-.7,5.5,5.5,0,0,0,.7-.9,5.92,5.92,0,0,1,.4-.6.45.45,0,0,0,0-.5h-.3c-.1,0-.1-.1,0-.2a.22.22,0,0,1,.2-.2c.1,0,.1-.1.1-.3.1.1.2.2.1.4s0,.4.2.4a.76.76,0,0,0,.4-.1c.2-.1.3-.1.3-.2s0-.1-.1-.2-.1-.1-.1-.2.1-.2.2-.2a.22.22,0,0,0,.2-.2v-.3c-.1-.1-.1-.1-.2-.1s-.1-.1-.2-.1-.1-.1-.1-.2l.1-.1a.1.1,0,0,1,.1-.1c.1-.1.1-.1.2-.1h0c0-.2,0-.3-.2-.4s-.2-.1-.2-.2l.2-.7a.76.76,0,0,1-.2-.4c0-.1-.1-.3-.1-.4h-.2c-.1,0-.1-.1-.1-.2a.35.35,0,0,1,.1-.2c0-.1.1-.1.1-.2a.22.22,0,0,0-.2-.2c-.1,0-.2,0-.2.1s0,.2-.1.2h-.4c-.1.1-.2.2-.2.3v.2c.1,0,.1.1,0,.2a.22.22,0,0,1-.2.2c-.1,0-.1,0-.1-.1l-.1-.1c-.1,0-.3.1-.6.4a2.25,2.25,0,0,0-.5.5c0,.1.1.2.2.4a5.74,5.74,0,0,0,.4.7,3.11,3.11,0,0,0,.4.6,1.24,1.24,0,0,0,.2.3c0,.1,0,.1-.1.2s0,.1-.1.2v.6c0,.1,0,.1.1.1s.2.1.1.2,0,.1-.1.2-.1.1-.2.1a.55.55,0,0,1-.6-.4,9.44,9.44,0,0,1-.3-.9l-.3-.9a.55.55,0,0,0-.6-.4.37.37,0,0,0-.3.1c-.1.1-.2.2-.2.3a2.85,2.85,0,0,1-.8.7q-.6.3-.6.6c0,.1,0,.1.1.1s.1,0,.1.1a.1.1,0,0,1-.1.1l-.1.1a.6.6,0,0,0,.1.4,1.38,1.38,0,0,1,.3.4l.3.3a.31.31,0,0,1,.1.2c0,.1,0,.1-.1.1C24.7,15.9,24.7,15.9,24.6,16Zm-.7.5c0-.1,0-.1.1-.1s.1,0,.1.1v.2C23.9,16.6,23.9,16.6,23.9,16.5Zm0,15.9c0-.1.1-.1.2-.1v.1c0,.1,0,.1-.1.1S23.9,32.5,23.9,32.4Zm.2,1v.2h-.2A.22.22,0,0,1,24.1,33.4Zm-.2-15.8c0-.1,0-.1.1-.1h.1c.1,0,.1,0,.1.1s-.1.1-.2.1S23.9,17.7,23.9,17.6Zm.1,1.2a.22.22,0,0,1,.2-.2h.1v.1a.22.22,0,0,1-.2.2C24,18.9,23.9,18.9,24,18.8Zm.1,2.3c0-.1,0-.1.1-.1s.2,0,.2.1-.1.1-.2.1S24,21.2,24.1,21.1Zm0,1.2a.22.22,0,0,1,.2-.2c.1,0,.2.1.1.2s-.1.1-.2.1S24.1,22.4,24.1,22.3Zm0,1.2c0-.1,0-.1.1-.1h.2v.2a.22.22,0,0,1-.2.2C24.1,23.6,24.1,23.6,24.1,23.5Zm.1,1.1a.1.1,0,0,1,.1-.1c.1,0,.1-.1.2-.1v.2a.22.22,0,0,1-.2.2C24.1,24.8,24.1,24.7,24.2,24.6Zm0,1.2c0-.1,0-.1.1-.1h.2c.1,0,.1.1.1.2s-.1.1-.2.1S24.2,25.9,24.2,25.8Zm.1,1.2a.22.22,0,0,1,.2-.2V27c-.1.1-.1.1-.2.1S24.2,27.1,24.3,27Zm0,1.1h0a.31.31,0,0,1,.2-.1c.1,0,.1,0,.1.1a.22.22,0,0,1-.2.2C24.3,28.3,24.3,28.2,24.3,28.1Zm.1-13.6c0-.1.1-.1.2-.1s.1.1.1.2,0,.1-.1.1S24.4,14.6,24.4,14.5Zm.2,5.9c0-.1.1-.1.2-.1s.2.1.1.2-.1.1-.2.1S24.6,20.5,24.6,20.4Zm.1,2.3c0-.1.1-.1.2-.1s.2,0,.2.1-.1.2-.2.2S24.7,22.8,24.7,22.7Zm0-1.1c0-.1,0-.1.1-.1s.1.1.1.2v.1h0C24.7,21.7,24.7,21.7,24.7,21.6Zm.1,2.3c0-.1,0-.1.1-.1s.1,0,.1.1a.31.31,0,0,0-.1.2C24.8,24,24.8,24,24.8,23.9Zm0,1.2c0-.1.1-.1.2-.1s.2,0,.2.1-.1.1-.2.1S24.8,25.2,24.8,25.1Zm.1,2.3a.22.22,0,0,1,.2-.2c.1,0,.1.1.1.2s0,.1-.1.1S24.9,27.5,24.9,27.4Zm0-1.2c0-.1,0-.1.1-.1s.2.1.1.3C24.9,26.4,24.9,26.4,24.9,26.2Zm.1,2.4a.22.22,0,0,1,.2-.2c.1,0,.1.1.1.2s-.1.1-.2.1S24.9,28.7,25,28.6Zm.3-14.9V14H25a.35.35,0,0,1,.1-.2C25.1,13.7,25.2,13.7,25.3,13.7ZM25,15a.22.22,0,0,1,.2-.2c.1,0,.2,0,.1.1a.22.22,0,0,1-.2.2A.1.1,0,0,1,25,15Zm.1,1.2a.22.22,0,0,1,.2-.2c.1,0,.1.1.1.2a.22.22,0,0,1-.2.2C25.1,16.3,25.1,16.3,25.1,16.2Zm0,1.1c.1-.1.1-.2.2-.2s.2.1.1.2a.22.22,0,0,1-.2.2A.35.35,0,0,1,25.1,17.3Zm.2,3.3h.2c.1,0,.1.1.1.2s-.1.1-.2.1-.1,0-.1-.1S25.3,20.8,25.3,20.6Zm0,1.4a.22.22,0,0,1,.2-.2c.1,0,.1.1,0,.2s0,.1-.1.1S25.3,22.1,25.3,22Zm0,1.2c.1-.1.1-.2.2-.2s.1.1.1.2-.1.1-.2.1A.1.1,0,0,1,25.3,23.2Zm.4,1v.3h-.3A.27.27,0,0,1,25.7,24.2Zm-.3,1.3a.22.22,0,0,1,.2-.2c.1,0,.2,0,.1.1s-.1.1-.2.1S25.4,25.6,25.4,25.5Zm.1,1.2a.22.22,0,0,1,.2-.2c.1,0,.1.1.1.2s0,.1-.1.1S25.5,26.8,25.5,26.7Zm0,1.1c0-.1.1-.1.2-.1s.2,0,.2.1-.1.2-.2.2S25.5,27.9,25.5,27.8Zm.1-14.9h.2c.1,0,.1.1.1.2a.22.22,0,0,1-.2.2c-.1,0-.1,0-.1-.1Zm.1,1.2h.2a.1.1,0,0,1,.1.1.22.22,0,0,1-.2.2C25.6,14.4,25.6,14.3,25.7,14.1Zm0,32h0c.1.1.1.1,0,.1Zm0,1.2c0-.1.1-.1.2-.1v.2C25.8,47.4,25.7,47.4,25.7,47.3Zm.4-9.1c.2,0,.2.1.2.2C26.1,38.5,26,38.4,26.1,38.2Zm0,3.7c0-.1,0-.1.1-.1s.1,0,.1.1l-.1.1C26.1,42,26.1,42,26.1,41.9Zm0,1.1h.2c-.1.1-.1.1-.2.1S26.1,43.1,26.1,43Zm0-15.8v-.1a.22.22,0,0,1,.2-.2c.1,0,.1.1.1.2v.1c-.1,0-.1,0-.1.1h-.1Zm.1,12.2c.1.1.1.1,0,.2s0,.1-.1.1Zm0-25.9c0-.1.1-.1.2-.1s.2,0,.2.1-.1.2-.2.2-.1,0-.1-.1S26.2,13.6,26.2,13.5Zm0,30.7h.2l-.2.2Zm2-18.3a1.69,1.69,0,0,1,.5.2,1.45,1.45,0,0,0,.7.2c.1-.2,0-.3-.1-.3s-.2-.1-.1-.2.1-.2.2-.2.1,0,.1.1,0,.1.1.1.3-.1.4-.3.2-.3.2-.5c.1-.4-.1-.6-.5-.6h-.2c0,.1,0,.1-.1.2s0,.1-.1.1v.1H29c-.1,0-.1-.1,0-.2s0-.2-.2-.2h-.2a.52.52,0,0,1-.4-.2c-.4,0-.6,0-.7-.2a5.92,5.92,0,0,1-.4-.6v-.1c0-.2.1-.3.2-.5s.3-.2.4-.3.3-.2.4-.4a.76.76,0,0,0,.2-.5c.1-.1.1-.1.2-.1h.2c.1,0,.1-.1.1-.2a1.09,1.09,0,0,1,.1-.5c0-.2,0-.3-.1-.3s-.1,0-.1.1-.1.1-.2.1-.3-.1-.2-.2.2-.2.3-.2.1,0,.1.1a.35.35,0,0,0,.2.1V20a.45.45,0,0,1,0-.5h0c-.1,0-.1,0-.1.1s-.1.1-.2.1-.3-.1-.2-.2.1-.2.3-.2h.2v-.5a.37.37,0,0,0-.1-.3.1.1,0,0,0-.1-.1c-.1,0-.1,0-.1.1a.1.1,0,0,1-.1.1c-.2,0-.3-.1-.2-.2s.2-.2.3-.2h.1a.1.1,0,0,0,.1-.1v-.4c0-.2-.1-.3-.2-.3h-.2c-.1-.1-.2-.1-.2-.2s0-.1-.2-.1-.2.1-.4.2-.4.3-.6.5a2.65,2.65,0,0,0-.5.6c-.1.2-.2.3-.2.4v1.5c0,.2,0,.2.1.2h.3v.1c-.1.2-.1.3-.2.2s-.2,0-.2.1-.1.2-.1.4,0,.4.1.4h.3c.1,0,.1.1.1.2s-.1.2-.2.2-.2,0-.2.2v.4c0,.1.1.2.1.3h.3c.2,0,.2.1.2.2a.22.22,0,0,1-.2.2h-.2v1h.1c-.1,0,0,0,.2-.1h.1v.2a.22.22,0,0,1-.2.2c-.1,0-.1.1-.2.2v.4c0,.2.1.3.2.3h.2c.1,0,.1.1.1.2a.1.1,0,0,1-.1.1c-.1,0-.1.1-.1.2s0,.4.2.4a1.27,1.27,0,0,0,.6.1.37.37,0,0,0,.3-.1C28,26.4,28,25.9,28.2,25.9ZM26.3,14.7c0-.2.1-.2.2-.2s.1,0,.1.1v.2c-.1.1-.1.2-.2.2A.37.37,0,0,1,26.3,14.7Zm0,1.2a.22.22,0,0,1,.2-.2c.1,0,.1,0,.1.1V16c-.1.1-.1.1-.2.1S26.3,16,26.3,15.9Zm0,1.1a.2.2,0,0,1,.4,0h-.2C26.3,17.2,26.3,17.1,26.3,17Zm.2,2.4h0v-.2h.2c.1,0,.2.1.2.3l-.1.1h-.1C26.5,19.6,26.4,19.5,26.5,19.4Zm.1,13.5v0Zm.1,10.6a.1.1,0,0,1,.1-.1.1.1,0,0,0,.1-.1.88.88,0,0,0-.1-.7,1.48,1.48,0,0,1-.1-.7.35.35,0,0,1,.1.2c.1.1.1.3.2.5a4.33,4.33,0,0,0,.1.5v.4a.1.1,0,0,1-.1.1h-.3C26.8,43.6,26.7,43.6,26.7,43.5Zm.1-16c.1-.1.1-.1.2-.1a.2.2,0,1,1,0,.4c-.1,0-.1,0-.1-.1A.31.31,0,0,1,26.8,27.5Zm0,17.2a.31.31,0,0,0,.1-.2c.1,0,.1.1.1.2s0,.1-.1.1A.1.1,0,0,1,26.8,44.7Zm.1-29.6a.2.2,0,0,1,.4,0c-.1.2-.1.2-.2.2s-.1,0-.1-.1S26.9,15.2,26.9,15.1Zm.1,17h.1c.1,0,.1,0,.1.1v.2h-.3Zm-.1,13.7.1-.2c.1,0,.1,0,.1.1v.1l-.1.1h0C26.9,46,26.9,45.9,26.9,45.8ZM27,16.3a.2.2,0,0,1,.4,0c0,.1,0,.1-.1.1s-.1.1-.2.1-.1,0-.1-.1S26.9,16.3,27,16.3Zm0,13.4c.2,0,.3.1.2.2a.22.22,0,0,1-.2.2v-.2C26.9,29.9,26.9,29.8,27,29.7Zm0-11a.22.22,0,0,1,.2-.2c.2,0,.2,0,.2.1s-.2.2-.3.2S27,18.8,27,18.7Zm.1,1.1a.22.22,0,0,1,.2-.2c.1,0,.2,0,.2.1s-.1.1-.1.2l-.1.1C27.1,20.1,27,20,27.1,19.8Zm0,1.2a.2.2,0,1,1,.4,0c-.1.2-.2.2-.3.2s-.1,0-.1-.1Zm.1,1.1a.2.2,0,1,1,.4,0c0,.1-.1.1-.1.2s-.1.1-.2.1S27.1,22.3,27.2,22.1Zm0,2.4a.22.22,0,0,1,.2-.2.1.1,0,0,1,.1.1c.1.1.1.1,0,.2s-.1.1-.2.1S27.2,24.6,27.2,24.5Zm.1,17.1v-.1h.2c.1,0,.1,0,.1.1s-.1.1-.2.1S27.3,41.7,27.3,41.6Zm0-1.1a.22.22,0,0,1,.2-.2c.1,0,.1,0,.1.1s-.1.2-.3.1Zm0-14.9a.2.2,0,1,1,.4,0c-.1.2-.2.2-.3.2S27.3,25.8,27.3,25.6Zm0-14.7c0-.1.1-.1.1-.2a.1.1,0,0,1,.1-.1c.1,0,.1,0,.1.1v.1c0,.1-.1.2-.3.2Zm.1,1.2c0-.1.1-.1.1-.2s.1-.1.1,0,.1,0,.2.1a.1.1,0,0,1,.1.1c0,.1,0,.1-.1.1a.1.1,0,0,0-.1.1C27.4,12.3,27.4,12.2,27.4,12.1Zm0,30.7c0-.1.1-.1.2-.1s.1.1.1.2-.1.1-.2.1A.31.31,0,0,1,27.4,42.8Zm0,1.1a.35.35,0,0,1,.2-.1l.1.1h0c0,.1-.1.1-.2.1S27.4,44,27.4,43.9Zm0,1.2a.31.31,0,0,1,.2-.1c.1,0,.1,0,.1.1s-.1.1-.2.2Zm.1-14.7a.2.2,0,1,1,.4,0c-.1.1-.2.2-.3.2S27.4,30.5,27.5,30.4Zm0-14.9c0-.1.1-.2.3-.2s.2.1.1.2-.1.2-.2.2S27.5,15.7,27.5,15.5Zm.1,2.4c.1-.1.1-.2.2-.2s.2.1.2.2,0,.2-.1.2h-.2C27.6,18.1,27.6,18,27.6,17.9Zm0,1.2c.1-.1.1-.2.2-.2H28v.2c0,.1,0,.1-.1.2s-.1.1-.2.1S27.6,19.2,27.6,19.1Zm.3,14.6c.1,0,.1.1.1.2s-.1.1-.2.1h-.2c0-.1,0-.2.1-.2S27.8,33.7,27.9,33.7Zm-.2-13.5c.1-.1.2-.2.3-.2s.2.1.1.2-.1.2-.2.2S27.7,20.4,27.7,20.2Zm0,14.8h0l.1-.1H28v.3c-.1,0-.1,0-.2-.1A.1.1,0,0,1,27.7,35Zm0-13.6c0-.1.1-.2.3-.2s.2.1.1.2a.22.22,0,0,1-.2.2C27.8,21.6,27.7,21.6,27.7,21.4Zm.1,3.6c.1-.1.1-.2.2-.2s.2.1.2.2-.1.2-.3.2-.1,0-.1-.1Zm.1,15.9c0-.1,0-.1.1-.1s.2,0,.2.1-.1.1-.2.1A.1.1,0,0,1,27.9,40.9ZM28,12.5c.1-.2.2-.2.3-.2s.1.1.1.3h-.2C28,12.7,27.9,12.6,28,12.5Zm0,30.7c0-.1,0-.1.1-.1s.2,0,.2.1-.1.2-.2.2S28,43.3,28,43.2Zm0-31.9c.1-.1.1-.2.2-.2s.3.1.2.2,0,.1-.1.2h-.1C28,11.5,28,11.4,28,11.3Zm0,18.3c.1-.1.2-.2.3-.2s.2.1.1.2,0,.1-.1.2-.1.1-.2.1-.1,0-.1-.1Zm.1,14.8c0-.1,0-.1.1-.1h.1v.1l-.1.1h0C28,44.5,28,44.5,28.1,44.4Zm0-30.7a.2.2,0,1,1,.2.2C28.1,13.9,28,13.8,28.1,13.7Zm0,1.1c.1-.1.2-.2.3-.2s.2.1.1.2a.22.22,0,0,1-.2.2C28.1,15,28,15,28.1,14.8Zm.1,18.4c.1-.2.1-.2.2-.2a.22.22,0,0,1,.2.2c-.1.1-.1.2-.2.2A.22.22,0,0,1,28.2,33.2Zm0,1.1c.1-.1.1-.2.2-.2a.22.22,0,0,1,.2.2l-.2.2A.22.22,0,0,1,28.2,34.3Zm.1,1h.2a.14.14,0,0,1,0,.2.22.22,0,0,1-.2.2Zm2-2.9v.7a3.4,3.4,0,0,0,.1,1,2.92,2.92,0,0,0,.2.9,1.63,1.63,0,0,0,.3.6h.2a.31.31,0,0,0,.2-.1c.1-.1.2-.1.4-.2s.2-.2.3-.2.1-.1.1-.2v-.1c-.1,0-.1-.1,0-.2s.1-.2.2-.2h.2c.1,0,.1,0,.1-.1a.1.1,0,0,1,.1-.1c0-.1,0-.2-.1-.2s-.1-.1-.1-.2,0-.1.1-.2.1-.1.1-.2.1-.2,0-.4-.1-.2-.2-.3l.2-.8c-.1-.1-.1-.2-.2-.2a.19.19,0,0,1,0-.3c0-.1,0-.2.1-.2s0-.1.1-.2a1.1,1.1,0,0,0,0-.8,2.35,2.35,0,0,0-.2-.8,2.2,2.2,0,0,1-.1-.8v-.8c0-.2.2-.3.4-.5s.4-.4.4-.5a.31.31,0,0,0-.1-.2c-.1-.1-.1-.2-.2-.3s-.2-.1-.3-.2h-.2l-.5.5h0c-.1,0-.3-.1-.5-.4s-.4-.4-.6-.4a.31.31,0,0,0-.2.1.52.52,0,0,1-.4.2c-.1.1-.3.2-.5.4v.2c-.1.1-.1.2-.2.2h-.2c-.1,0-.1,0-.2.1s-.1.1-.1.2,0,.1.1.1a.1.1,0,0,1,.1.1h0l-.1.1a.1.1,0,0,0-.1.1h0c-.1,0-.1,0-.1-.1s0-.1-.1-.1-.1,0-.1.1a.35.35,0,0,1-.1.2c0,.2,0,.3.1.4a.52.52,0,0,0,.4.2.9.9,0,0,0,.5.1c.2,0,.3.1.4.1s.2.2.3.4a.62.62,0,0,1,.2.4.35.35,0,0,1-.1.2c-.1.1-.1.1-.1.2a.6.6,0,0,0,.1.4c.1.1.2.2.1.4a.37.37,0,0,0-.1.3c-.1.2,0,.3.1.5a.75.75,0,0,1,.1.5v.1C30.3,32.3,30.3,32.3,30.3,32.4Zm-1.9,4.2a.2.2,0,1,1,.4,0,.1.1,0,0,1-.1.1h-.2C28.3,36.8,28.3,36.7,28.4,36.6Zm.1-11.2c.1-.1.2-.2.3-.2s.2.1.2.2a.22.22,0,0,1-.2.2c-.1,0-.1,0-.2-.1S28.4,25.4,28.5,25.4Zm0,12.4c0-.1,0-.2.1-.2a.2.2,0,1,1,0,.4C28.5,38,28.4,37.9,28.5,37.8Zm.3,2.2v.3h-.3a.35.35,0,0,1,.1-.2C28.6,40,28.6,40,28.8,40Zm-.2-29.4c0-.2.1-.2.2-.2s.2.1.2.3a.22.22,0,0,1-.2.2h-.2A.19.19,0,0,1,28.6,10.6Zm0,1.2c0-.1,0-.1.1-.2a.31.31,0,0,1,.2-.1.22.22,0,0,1,.2.2c-.1.2-.2.2-.3.2S28.5,11.9,28.6,11.8Zm.1,1.2c0-.1.1-.2.1-.3s.1-.2.1-.3.2.1.2.4v.6l-.2-.2C28.7,13.2,28.6,13.1,28.7,13Zm0,17.1c.1-.1.1-.2.2-.2h.2c.1,0,.1.1,0,.1,0,.2-.1.2-.3.2S28.6,30.2,28.7,30.1Zm.1-17.8h0c0,.1-.1.1,0,0Zm0,21.3a.2.2,0,1,1,.2.2A.22.22,0,0,1,28.8,33.6Zm0,1.1c.1-.1.1-.2.2-.2s.2.1.1.2v.2a.1.1,0,0,1-.1.1c-.1,0-.1,0-.1-.1S28.8,34.8,28.8,34.7Zm2.5-10.9h0a.45.45,0,0,0,.5,0c.2-.1.3-.1.3-.2v-.2c0-.1.1-.2.3-.2s.3-.1.3-.2v-.2c.1-.2.2-.3.4-.3h.4a.1.1,0,0,0,.1-.1c0-.1,0-.1-.1-.1s-.2-.1-.1-.3a.22.22,0,0,1,.2-.2c.1,0,.1-.1.2-.1s0-.1-.1-.2-.1-.1-.2-.1a.22.22,0,0,0-.2.2c0,.2-.2.2-.4.2s-.1,0-.1-.1v-.4l-.1-.1h-.2c-.1,0-.2,0-.2-.1v-.4c0-.1,0-.1-.1-.1s-.1,0-.2.1-.1.1-.2.1-.3-.1-.2-.3.1-.2.2-.3.2-.1.3-.1.1-.2.1-.4-.1-.2-.2-.2-.1,0-.1.1l-.1.1c-.1,0-.1,0-.2-.1a.31.31,0,0,1-.1-.2.22.22,0,0,1,.2-.2c.1,0,.2-.1.3-.1a.88.88,0,0,0-.1-.7h-.2c-.2,0-.3-.1-.2-.3a.22.22,0,0,1,.2-.2.22.22,0,0,0,.2-.2c0-.2,0-.3-.1-.3s-.1-.1-.2-.1-.2,0-.2-.1-.1-.1,0-.2h0l.4-.3v-.5c-.1,0-.1-.1-.2-.1s-.1,0-.2-.1-.1-.1,0-.2v-.1l.4-.3h0v-.3c0-.1-.1-.2-.2-.1l-.2-.2h0c0-.1,0-.1.1-.2s.1-.1.1-.2a.76.76,0,0,0-.4.1,1.38,1.38,0,0,0-.4.3V15c0,.2-.1.3-.2.3h-.4v.2c0,.1,0,.1.1.2s.1.1.1.2-.1.2-.2.2-.2,0-.2.2v.3c0,.2,0,.2.1.2h.4c.1,0,.1.1,0,.2s0,.1-.1.2a.31.31,0,0,1-.2.1v.5c.1.1.1.1.2.1s.1.1.2.1.1.1.1.2-.2.2-.4.2v.5c.1,0,.1.1.2.1s.1.1.2.1.1.1.1.2a.22.22,0,0,1-.2.2c-.1.1-.2.2-.2.3s0,.3.2.3l.2.1v.3c-.1,0-.1.1-.2.1a.1.1,0,0,0-.1.1V21c0,.1.1.1.1.2s.1.1.2.1.1.1.1.2-.1.2-.2.3a1.38,1.38,0,0,1-.4.3,1.38,1.38,0,0,1-.4.3c-.1.1-.2.2-.2.3V23a.22.22,0,0,0,.2.2h.2a.91.91,0,0,1,.5.3,1.08,1.08,0,0,0,.7.3h.2c0-.1.1-.2.1-.3s.1-.1.3-.1.2.1.2.2l-.8.2ZM28.9,35.9c.1-.1.1-.2.2-.2s.2.1.2.2,0,.1-.1.2a.1.1,0,0,1-.1.1C28.9,36.1,28.9,36,28.9,35.9ZM29,37c.1-.1.1-.2.2-.2s.2.1.1.2a.22.22,0,0,1-.2.2C29,37.2,29,37.2,29,37Zm.1,2.4a.35.35,0,0,1,.1-.2h.2v.3h-.2C29.1,39.6,29.1,39.5,29.1,39.4Zm.1,1h.3c0,.1,0,.2-.1.2s-.1.1-.2.1-.1,0-.1-.1A.31.31,0,0,1,29.2,40.4Zm0-12.3c0-.1.1-.2.3-.2s.1,0,.1.1v.2a.22.22,0,0,1-.2.2c-.1,0-.1,0-.2-.1Zm0-16.9V11c.1-.1.2-.2.3-.2a.22.22,0,0,1,.2.2c-.1.2-.2.2-.3.2S29.2,11.3,29.2,11.2Zm0,30.5a.31.31,0,0,0,.1-.2c.1,0,.2.1.1.2s0,.2-.1.2S29.2,41.8,29.2,41.7Zm0-29.5h0c0-.2.1-.2.1-.2h.4v.2c0,.1-.1.2-.3.2S29.2,12.4,29.2,12.2Zm.1,1.2c0-.1,0-.2.1-.2h.3v.2c-.1.1-.2.2-.3.2h-.2C29.3,13.5,29.3,13.5,29.3,13.4Zm.2,21.8c0-.1,0-.1.1-.2s.1-.1.2,0,.1.1.1.2a.22.22,0,0,1-.2.2C29.5,35.4,29.5,35.3,29.5,35.2Zm1.1-22.9a.65.65,0,0,0,.2.5.54.54,0,0,0,.4.3.52.52,0,0,0,.4-.2c.1-.2.2-.3.2-.5s0-.4,0-.6a1.27,1.27,0,0,1-.1-.6h0c-.1,0-.1,0-.2.1s-.1.1-.2.1-.2-.1-.2-.3,0-.1.1-.2a.31.31,0,0,1,.2-.1c.1,0,.1,0,.1.1a.1.1,0,0,0,.1.1h0c0-.1-.1-.2-.1-.3v-.3l-.1-.1a.1.1,0,0,0-.1-.1h-.2c-.1,0-.1,0-.2-.1s-.1-.1,0-.2a.27.27,0,0,1,.3-.3.27.27,0,0,0,.3-.3V9.1c0-.1.1-.1.2-.2a.31.31,0,0,1,.2-.1c.1,0,.2.1.2.3s-.2.3-.4.4v.4c.1,0,.1.1.2.1a.35.35,0,0,1,.2.1c.1,0,.1.1.1.2s-.1.2-.2.3-.1.1-.2.2v.3a.35.35,0,0,0,.2.1c.1,0,.1.1.2.1v.2c0,.1,0,.1-.1.1a.1.1,0,0,1-.1.1h.1a1.42,1.42,0,0,0,.6-.2c.2-.2.3-.3.2-.5l.5-.2.1-.1h0v-.2c0-.1.1-.2.3-.2h.4c0-.1,0-.1-.1-.2s-.1-.2,0-.2.1-.2.3-.2.2-.1.3-.2V9.3a.35.35,0,0,0-.1-.2h-.3a.22.22,0,0,0-.2.2v.4h-.6l-.1.5c0,.1,0,.1-.1.1h-.2c-.2,0-.2-.1-.2-.3V9.8h.3c.1,0,.1-.1.1-.2V9.5h0V9.4q.15-.3.3-.3c.2,0,.2-.1.3-.2s0-.2.1-.2,0-.1-.1-.2c.1-.1.2-.2.3-.1s.3,0,.3-.2V7.9a.22.22,0,0,0-.2-.2c-.1,0-.1,0-.2.1a.22.22,0,0,0-.2.2v.2a.35.35,0,0,1-.1.2c-.1,0-.1.1-.2.1a.35.35,0,0,0-.2.1c-.1.1-.1.2-.1.4a.37.37,0,0,1-.3.1c-.1,0-.2-.1-.5-.3s-.4-.3-.4-.4a.22.22,0,0,1,.2-.2c.1,0,.1-.1.2-.1a.37.37,0,0,0-.2-.5,1,1,0,0,1-.4-.5h-.2a.22.22,0,0,1-.2-.2c0-.1,0-.2-.1-.2s-.2.1-.4.2l-.6.6-.6.6c-.2.2-.2.3-.2.4v.3c0,.1,0,.2.1.2h0c0-.2.1-.2.3-.2s.2.1.2.2a.22.22,0,0,1-.2.2.35.35,0,0,0-.2.1c0,.1,0,.1.1.3s.1.3.1.4a2.19,2.19,0,0,1,.3.5c.1,0,.1,0,.1-.1s.1-.1.2-.1.1,0,.2.1a.35.35,0,0,0,.1.2c-.1.2-.3.2-.5.2v.3a.37.37,0,0,0,.1.3h.2c.2,0,.2.1.2.2a.22.22,0,0,1-.2.2C30.7,12.2,30.6,12.2,30.6,12.3Zm-1,24a.22.22,0,0,1,.2-.2h.1v.1h0a.22.22,0,0,1-.2.2C29.6,36.5,29.5,36.5,29.6,36.3Zm0-13.6h0c0-.2.1-.2.1-.2H30v.2c0,.1-.1.2-.3.2S29.6,22.9,29.6,22.7Zm.1,2.4c0-.2.1-.2.3-.2s.1,0,.1.1v.2a.22.22,0,0,1-.2.2h-.1C29.7,25.2,29.7,25.2,29.7,25.1ZM29.8,41c0-.1.1-.1.1-.2s.1-.1.1-.2a.61.61,0,0,0-.1-.6.82.82,0,0,1-.1-.7h0a.22.22,0,0,1,.2.2c0,.1.1.2.1.4v.7l-.1.5h-.2Zm0,1.2A.22.22,0,0,1,30,42c.1,0,.2,0,.1.1s-.1.1-.2.1S29.8,42.3,29.8,42.2Zm0-14.8c0-.1.1-.2.3-.2h.1v.2a.2.2,0,0,1-.4,0Zm.1,1.2c0-.1.1-.2.3-.2h.2v.2a.22.22,0,0,1-.2.2C29.9,28.8,29.8,28.7,29.9,28.6Zm0,14.7c0-.1.1-.1.2-.1h.2c0,.1,0,.1-.1.2a.1.1,0,0,1-.1.1S29.9,43.4,29.9,43.3ZM30,16.1c0-.1.1-.2.3-.2s.3.1.2.2-.1.2-.3.2S29.9,16.3,30,16.1Zm0,1.2q.15-.3.3-.3c.2,0,.2.1.2.3s-.1.2-.3.2S30,17.5,30,17.3Zm0,1.2c.1-.2.2-.3.4-.3s.2.1.2.3,0,.1-.1.2a.31.31,0,0,1-.2.1C30.1,18.7,30,18.7,30,18.5Zm.1,1.1c0-.1.1-.2.3-.2s.2.1.2.2,0,.1-.1.2-.1.1-.2.1S30.1,19.8,30.1,19.6Zm.1,1.3v-.2h.2c.2,0,.3.1.2.2s-.1.2-.3.2S30.2,21,30.2,20.9Zm0,1.1a.22.22,0,0,1,.2-.2h.2c.1,0,.1.1,0,.2s-.1.2-.3.2-.2,0-.2-.1S30.2,22.1,30.2,22Zm0,1.2c0-.2.1-.2.3-.2s.2.1.1.2-.1.2-.2.2A.22.22,0,0,1,30.2,23.2Zm0,14.7a.2.2,0,1,1,.4,0l-.1.1c-.1,0-.1.1-.2.1s-.1,0-.1-.1Zm.1,1.2a.2.2,0,1,1,.2.2C30.3,39.3,30.3,39.3,30.3,39.1Zm0-30.7q.15-.3.3-.3c.2,0,.3.1.2.2s-.2.3-.3.3S30.3,8.6,30.3,8.4Zm0,31.9a.2.2,0,0,1,.4,0c-.1.1-.1.2-.2.2a9951643238333,9951643238333,0,0,1-.2-.2Zm.1-30.7c.1-.2.2-.2.3-.2s.1,0,.2.1.1.1.1.2-.1.1-.1.2-.1.1-.2.1C30.4,9.9,30.3,9.8,30.4,9.6Zm0,18.3c0-.2.2-.2.4-.2s.1.1.1.2v.2h-.4V28Zm0-1.2a.31.31,0,0,0,.1-.2h.4a.31.31,0,0,1-.1.2.22.22,0,0,1-.2.2C30.4,26.9,30.4,26.8,30.4,26.7Zm0,14.7a.22.22,0,0,1,.2-.2c.1,0,.1.1.1.2s-.1.2-.2.2S30.4,41.6,30.4,41.4Zm0,1.2c0-.1.1-.1.2-.1a.22.22,0,0,1,.2.2c-.1.1-.1.2-.2.2S30.4,42.7,30.4,42.6Zm.1-13.5q.15-.3.3-.3c.1,0,.1,0,.2.1V29a.22.22,0,0,1-.2.2h-.2C30.5,29.2,30.5,29.2,30.5,29.1Zm0-13.7c0-.1,0-.1.1-.2a.31.31,0,0,1,.2-.1c.1,0,.1,0,.2.1s.1.1.1.2h0l-.3.3h0c-.1,0-.1,0-.2-.1S30.5,15.5,30.5,15.4Zm0,15v-.2q.15-.3.3-.3c.1,0,.1.1.1.2s-.1.2-.2.2A.31.31,0,0,1,30.5,30.4Zm.1,1c0-.1.1-.2.3-.2H31v.4h-.2C30.6,31.6,30.6,31.5,30.6,31.4Zm0,2.3c0-.1.1-.1.1-.2s.1-.1.2-.1a.22.22,0,0,1,.2.2c0,.1-.1.2-.1.3h-.3C30.6,33.9,30.6,33.8,30.6,33.7Zm0-17.1c.1-.2.1-.2.2-.2s.3.1.2.2-.2.3-.3.3-.1,0-.1-.1Zm.1,15.9a.22.22,0,0,1,.2-.2c.1,0,.2.1.1.2s0,.2-.1.2h-.3v-.1Zm0-14.8a.22.22,0,0,1,.2-.2h.2c.1,0,.1.1.1.2s0,.1-.1.2-.1.1-.2.1-.1,0-.2-.1Zm0,1.2c.1-.1.2-.2.3-.2s.1,0,.2.1a.1.1,0,0,1,.1.1c-.1.2-.2.3-.4.3S30.7,19.1,30.7,18.9Zm0,16c.1-.2.2-.2.3-.2s.2.1.1.2a.2.2,0,0,1-.4,0Zm0-14.8c.1-.2.2-.2.3-.2s.1,0,.2.1a.1.1,0,0,1,.1.1q-.15.3-.3.3C30.7,20.4,30.7,20.3,30.7,20.1Zm.1,1.2q.15-.3.3-.3c.1,0,.1,0,.2.1s.1.1.1.2l-.4.3c-.1,0-.1,0-.1-.1S30.8,21.4,30.8,21.3Zm0,1.1c.1-.2.2-.3.4-.3s.1,0,.1.1v.2c0,.1,0,.1-.1.2s-.1.1-.2.1S30.8,22.6,30.8,22.4Zm.1-14.7q.15-.3.3-.3c.2,0,.3.1.2.3s-.2.2-.4.2-.1,0-.2-.1Zm0,1.2q.15-.3.3-.3c.2,0,.3.1.2.3s-.2.3-.4.3-.1,0-.1-.1Zm0,31.8c0-.1.1-.2.3-.2s.2.1.1.2a.1.1,0,0,1-.1.1c-.1.1-.1.1-.2.1S30.9,40.9,30.9,40.7Zm.1,1.2a.22.22,0,0,1,.2-.2c.1,0,.1.1.1.2s-.1.2-.2.2S31,42,31,41.9Zm0-29.5c.1-.2.2-.3.4-.3s.2,0,.2.1v.2c-.1.2-.2.2-.3.2C31,12.6,31,12.6,31,12.4Zm0,14.7c0-.1.1-.1.1-.2s.1-.1.2-.1.3.1.2.3-.1.2-.3.2S31,27.3,31,27.1Zm.1,1.2a.22.22,0,0,1,.2-.2c.2,0,.2.1.2.2s-.2.2-.3.2S31,28.4,31.1,28.3Zm0,1.4h0v-.2a.22.22,0,0,1,.2-.2c.2,0,.3.1.2.2s-.1.2-.3.2Zm0,1,.1-.3h.4v.2c-.1.1-.2.2-.3.2h-.1C31.1,30.8,31.1,30.8,31.1,30.7Zm.1,1.1c0-.2.1-.2.3-.2s.1.1.1.2a.22.22,0,0,1-.2.2C31.2,32,31.2,31.9,31.2,31.8Zm.4.9c.1,0,.2.1.1.2V33c0,.1,0,.1-.1.1h-.4c0-.1.1-.2.1-.3S31.5,32.7,31.6,32.7Zm-.3,1.4c.1-.2.2-.2.3-.2s.1.1.1.3v.1c0,.1-.1.1-.2.1S31.3,34.3,31.3,34.1Zm.1-12.4c0-.1,0-.1.1-.2a.31.31,0,0,1,.2-.1h0l.2.3-.4.3h0C31.4,22,31.3,21.9,31.4,21.7Zm0,1.2a.27.27,0,0,1,.3-.3c.2,0,.3.1.2.2s-.2.3-.4.3C31.5,23.2,31.4,23.1,31.4,22.9Zm.1-14.7c.1-.2.2-.3.4-.3s.1,0,.1.1.1.1.1.2-.2.3-.4.3-.1,0-.2-.1Zm.1,19.3c.1-.1.2-.2.3-.2s.3.1.2.2-.2.2-.3.2S31.6,27.7,31.6,27.5Zm0,1.2c.1-.2.2-.2.3-.2s.3.1.2.3-.2.2-.3.2-.1,0-.2-.1Zm2.8-3.2c.2,0,.2.1.2.2s0,.2.1.3H35c.1-.1.2-.1.2-.2v-.2a.22.22,0,0,0-.2-.2h-.2a.22.22,0,0,1-.2-.2v-.3a.37.37,0,0,1,.3-.1c.2,0,.2,0,.2-.1v-.5h-.4a.22.22,0,0,0-.2.2v.4c0,.1-.1.1-.2.1h-.2c-.1,0-.2-.1-.2-.3s.2-.2.3-.2a.22.22,0,0,0,.2-.2c.1-.2,0-.3-.1-.3H34c-.1,0-.1,0-.1-.1l-.1-.1h-.3c-.1,0-.2.1-.3.2s-.1.2-.3.2-.1,0-.2-.1-.1-.1-.2-.1-.3.1-.4.3.1.1.3.1.3.1.2.2-.2.3-.4.3a.22.22,0,0,1-.2-.2v-.3c-.1,0-.1,0-.2.1a.31.31,0,0,0-.1.2c0,.1,0,.2.2.4l.3.3h.4c.1,0,.2,0,.2.1a.37.37,0,0,0,.3.1h.3v-.2a.22.22,0,0,1,.2-.2.37.37,0,0,1,.3-.1c.1,0,.1,0,.1.1v.2c0,.1-.1.1-.1.2a.35.35,0,0,0-.1.2.37.37,0,0,0,.3-.1C34.2,25.6,34.3,25.5,34.4,25.5Zm-2.6,4.4c0-.1,0-.1.1-.2s.1-.1.2-.1.2.1.2.2-.1.2-.2.2C31.8,30.1,31.7,30.1,31.8,29.9Zm0,1.2c0-.1.1-.2.3-.2s.2.1.2.2-.2.2-.3.2S31.7,31.2,31.8,31.1Zm.3.9c.2,0,.3.1.2.2s-.2.2-.3.2h-.2l.1-.4h.2Zm-.2,1.4h0c0-.2.1-.2.1-.2h.4v.2h0c0,.1,0,.1-.1.2h-.2C31.9,33.6,31.8,33.6,31.9,33.4Zm.9-12.8h0c0,.1,0,.2.1.2h.2c.1,0,.2-.1.4-.2s.3-.2.3-.3v-.1h0V20c.1-.2.2-.2.3-.2a.22.22,0,0,0,.2-.2v-.5h-.4a.35.35,0,0,0-.2.1l-.1.5c0,.1,0,.1-.1.1h-.2c-.2,0-.2-.1-.2-.3s.1-.2.2-.2a.37.37,0,0,0,.3-.1h0v-.1c0-.1-.1-.2-.4-.4s-.4-.3-.4-.5h-.2c-.2,0-.2-.1-.2-.3s.1-.1.1-.2h.4c.1,0,.1,0,.1-.1s0-.1-.1-.1-.1-.1-.1-.2a.22.22,0,0,1,.2-.2c.1,0,.2-.1.4-.1h0v-.5a.37.37,0,0,0,.3-.1q.15,0,.3-.3c0-.1,0-.1-.1-.2s-.1-.1-.2-.1-.1,0-.2.1a.22.22,0,0,0-.2.2v.4c-.1,0-.1,0-.2.1a.35.35,0,0,0-.2.1c-.2,0-.2-.1-.2-.4h0c.1-.1.1-.1.3-.1a.22.22,0,0,0,.2-.2v-.3c.1-.2.2-.2.3-.2s.2,0,.2-.2v-.2a.22.22,0,0,0-.2-.2h-.4c-.1,0-.1-.1-.1-.2v-.2c.1-.1.2-.2.3-.1s.2,0,.3-.2v-.3c0-.1-.1-.1-.2-.1h-.2a.22.22,0,0,0-.2.2v.2a.22.22,0,0,1-.2.2h-.2c-.2,0-.2-.1-.2-.3s.2-.2.3-.2.2-.1.3-.2v-.4c0-.1.1-.2.2-.1s.2,0,.2-.2v-.6h0c-.1,0-.2,0-.2.1a.37.37,0,0,1-.3.1c-.1,0-.1,0-.1-.1s0-.1-.1-.1-.3.1-.4.3,0,.1.1.1h.4c.1,0,.1,0,.1.1v.2c0,.1-.2.2-.4.2a.22.22,0,0,1-.2-.2c0-.1,0-.2-.1-.2s-.3.1-.5.4a2.74,2.74,0,0,1-.4.5v.3a.1.1,0,0,1,.1.1c.1,0,.1,0,.2.1s.1.1,0,.2a.35.35,0,0,1-.1.2c-.1,0-.1.1-.1.2v.3c0,.1.1.1.1.2a.1.1,0,0,1,.1.1v.2c0,.1,0,.1-.1.2s-.1.1-.2.2v.2c0,.1.1.1.2.2l.2.2v.2c0,.1,0,.1-.1.2a.22.22,0,0,0-.2.2v.2a.1.1,0,0,0,.1.1.1.1,0,0,1,.1.1.25.25,0,0,1,0,.4c-.1.1-.1.1-.1.2s0,.3.1.4a.52.52,0,0,1,.2.4.35.35,0,0,1-.1.2c0,.1-.1.1-.1.2v.2a.52.52,0,0,1,.2.4.37.37,0,0,1-.1.3c0,.1-.1.2-.1.3v.1c0,.1,0,.1.1.1h.1l.1-.4c.1,0,.1-.1.2-.1h.2c.1,0,.1,0,.1.1v.2a.35.35,0,0,1-.1.2A3.14,3.14,0,1,1,32.8,20.6ZM32,22.1c0-.1.1-.1.2-.2a.31.31,0,0,1,.2-.1c.1,0,.2.1.2.3s-.2.3-.4.3S32,22.3,32,22.1Zm.1,16c0-.1.1-.1.1-.2a.1.1,0,0,1,.1-.1c.2,0,.3.1.2.3s-.1.2-.2.2S32,38.2,32.1,38.1Zm0,1.2c0-.1.1-.2.3-.2s.2.1.1.2-.1.2-.2.2-.1,0-.2-.1Zm0-29.6a.22.22,0,0,1,.2-.2.31.31,0,0,1,.2-.1c.1,0,.2,0,.2.1v.2c-.1.2-.2.2-.3.2S32.1,9.9,32.1,9.7Zm.1,1.2c.1-.2.2-.3.4-.3s.1,0,.2.1v.2c0,.1-.1.1-.2.2h-.2C32.2,11.1,32.2,11.1,32.2,10.9Zm0,15.9c0-.2.1-.2.3-.2s.3.1.3.2-.2.3-.4.3S32.2,27,32.2,26.8Zm.1-13.6a.22.22,0,0,1,.2-.2h.2c.2,0,.2.1.2.3s-.1.1-.2.2h-.2C32.4,13.5,32.3,13.4,32.3,13.2Zm0,1.2a.46.46,0,0,1,.5-.3c.1,0,.1,0,.1.1v.2c0,.1-.2.2-.4.2S32.3,14.6,32.3,14.4Zm.1,1.1c.1-.2.2-.3.4-.3s.1,0,.2.1v.2c0,.1-.1.1-.2.2h-.2C32.4,15.8,32.4,15.7,32.4,15.5Zm.1,1.2c0-.1.2-.2.5-.2.1,0,.1,0,.1.1s0,.1-.1.2V17h-.3C32.4,17,32.4,16.9,32.5,16.7ZM33,7a1,1,0,0,0,.2.6,5.2,5.2,0,0,1,.3.5c.2,0,.4-.1.4-.3V7.6a.22.22,0,0,1,.2-.2c.1,0,.2,0,.2-.1a.92.92,0,0,1,.4-.6c.2-.1.4-.2.4-.4V6.1c0-.1-.1-.1-.2-.1h-.2c-.1,0-.1.1-.2.2v.2c0,.1-.1.2-.3.2s-.3,0-.3.2l-.1.5c0,.1-.1.1-.2.1h-.2c-.2,0-.3-.1-.2-.3s.1-.2.3-.2.3,0,.3-.1l.1-.6c.1,0,.1-.1.3-.1a.22.22,0,0,0,.2-.2V5.4a.76.76,0,0,0,.4-.1.22.22,0,0,0,.2-.2V4.9c0-.1-.1-.1-.2-.1h-.3a.22.22,0,0,0-.2.2v.4a.31.31,0,0,0-.2.1h-.2c-.2,0-.2-.1-.2-.3a.22.22,0,0,1,.2-.2.37.37,0,0,0,.3-.1h0V4.5h0c.1,0,.1,0,.2-.1a.35.35,0,0,0,.2-.1c0-.2,0-.2-.2-.2s-.2.1-.2.2a1.38,1.38,0,0,1-.4.3,1.24,1.24,0,0,0-.3.2l-.1.5c-.1.1-.2.2-.3.1s-.2,0-.2.1v.4c0,.2-.2.3-.4.3s-.1,0-.1-.1L32.3,6a1.09,1.09,0,0,0,.1.5q.15.3.3.3h.2c.1,0,.1,0,.1.1v.2h0C33.1,6.9,33,6.9,33,7Zm-.5,12.1c0-.2.2-.3.5-.3.1,0,.1,0,.1.1v.2c-.1.2-.2.2-.4.2S32.5,19.3,32.5,19.1Zm.2,5.8c0-.1.1-.1.2-.2a.31.31,0,0,1,.2-.1c.1,0,.1,0,.2.1v.2c0,.1-.1.2-.3.2S32.7,25.1,32.7,24.9Zm0,13.6a.2.2,0,0,1,.4,0v.1c0,.1,0,.1-.1.1h-.3v-.2Zm.1,1.2a.2.2,0,1,1,.2.2C32.8,39.9,32.7,39.8,32.8,39.7ZM33,14.8a.22.22,0,0,1,.2-.2c.1,0,.2-.1.3-.1s.1.1.1.2V15c0,.1-.1.1-.2.1h-.2C33,15.1,32.9,15,33,14.8Zm.1,20.7c.1-.2.2-.2.3-.2a.22.22,0,0,1,.2.2c0,.1-.1.2-.3.2A.22.22,0,0,1,33.1,35.5Zm.7,1.2h-.3c-.1,0-.2-.1-.1-.2v-.2h.5l.1-.1c0-.1,0-.1-.1-.1s-.1-.1-.1-.2.1-.1.1-.2.1-.1.2-.1a.31.31,0,0,0,.1.2v.4a.6.6,0,0,1-.1.4v.5h0c-.1,0-.2-.1-.1-.2Zm-.5,1.1c0-.1,0-.2.1-.2h.2a.2.2,0,0,1,0,.4h-.2C33.3,38,33.3,37.9,33.3,37.8Zm0-31.9h0V5.8c.1-.1.2-.1.4-.1s.1,0,.1.1V6a.22.22,0,0,1-.2.2h-.2C33.3,6.2,33.3,6.1,33.3,5.9Zm0,33.1c0-.1.1-.1.1-.2a.1.1,0,0,1,.1-.1c.1,0,.1.1.1.2v.2h-.3Zm0-14.8c0-.1.1-.2.3-.2s.3.1.2.3-.1.1-.2.2h-.2A.44.44,0,0,1,33.3,24.2Zm.2,4.7c.1-.2.2-.3.4-.3s.1,0,.2.1v.2c-.1.2-.2.2-.3.2C33.5,29.2,33.5,29.1,33.5,28.9Zm.1,1.2c.1-.2.2-.3.4-.3s.1,0,.1.1v.2c-.1.2-.2.2-.3.2S33.5,30.2,33.6,30.1Zm0,1.1c.1-.2.2-.3.4-.3s.3.1.2.3,0,.1-.1.2a.31.31,0,0,1-.2.1h0l-.3-.3Zm.5-14.5c-.3,0-.4.1-.5.4C33.9,17.1,34.1,17,34.1,16.7Zm-.5,15.7c.1-.2.2-.3.4-.3s.1,0,.1.1v.2a.27.27,0,0,1-.3.3c-.1,0-.1,0-.2-.1C33.7,32.5,33.6,32.5,33.6,32.4Zm.1,2.3c0-.1.1-.1.2-.2a.35.35,0,0,0,.2-.1h.1v.2c0,.2-.1.3-.2.3S33.7,34.9,33.7,34.7Zm.1-14.3v.2c0,.1,0,.1.1.1h.5c.1,0,.1,0,.1-.1v-.4c0-.1.1-.2.3-.1a.27.27,0,0,0,.3-.3v-.2c0-.1-.1-.1-.2-.1a.52.52,0,0,0-.4.2v.4a.6.6,0,0,1-.4.1C33.9,20.2,33.9,20.3,33.8,20.4Zm.2,2.4V23c0,.1.1.1.2.1s.3-.1.3-.2v-.6a.37.37,0,0,0,.3-.1A.22.22,0,0,0,35,22v-.2c0-.1-.1-.1-.2-.1h0l-.4.2h0v.3a.37.37,0,0,1-.3.1A2,2,0,0,1,34,22.8Zm.1,5.3a.22.22,0,0,1,.2-.2c.1,0,.2-.1.3-.1s.1,0,.1.1v.2c0,.1-.2.2-.4.2S34,28.3,34.1,28.1Zm0-15.4c-.1.3.1.4.4.4v-.3c0-.2,0-.2-.2-.2S34.1,12.6,34.1,12.7Zm.1,16.6c0-.1.1-.1.2-.2a.31.31,0,0,1,.2-.1c.1,0,.1,0,.2.1v.2c0,.1-.1.1-.2.2h-.2C34.2,29.6,34.1,29.5,34.2,29.3Zm0-15.4v.3a.22.22,0,0,0,.2.2c.1,0,.1,0,.1-.1V14c0-.1-.1-.1-.2-.1S34.2,13.8,34.2,13.9Zm0,16.6c.1-.2.2-.3.4-.3s.2.1.2.3-.2.3-.3.3Q34.05,30.8,34.2,30.5ZM34.3,15v.3c0,.1.1.1.2.1s.1,0,.2-.1.1-.1.1-.2v-.2c-.1-.1-.1-.1-.2-.1C34.3,14.8,34.3,14.9,34.3,15Zm0,1.3c-.1.1,0,.2.1.2a.22.22,0,0,0,.2-.2V16A.27.27,0,0,0,34.3,16.3Zm0,15.3c.1-.2.2-.3.4-.3s.1,0,.1.1v.2c0,.1,0,.1-.1.1a.1.1,0,0,1-.1.1C34.3,31.9,34.2,31.8,34.3,31.6Zm.2-10.8c0,.1,0,.1.1.1h.1c.2,0,.3-.1.3-.2s0-.1-.1-.1-.2.1-.4.2Zm0-3.1c0,.1.1.1,0,0a.59.59,0,0,0,.5-.2c0-.2-.1-.3-.2-.3s-.1,0-.2.1a.35.35,0,0,1-.1.2v.2Zm.1,5.5a.22.22,0,0,0,.2.2H35c.1,0,.2,0,.2-.1s-.1-.3-.2-.3h-.3C34.6,23,34.6,23.1,34.6,23.2Zm0-15.9v.2a.22.22,0,0,0,.2.2.27.27,0,0,0,.3-.3V7.2c0-.1-.1-.1-.2-.1s-.1,0-.2.1C34.7,7.1,34.7,7.2,34.6,7.3Zm.1,20.1a.22.22,0,0,1,.2-.2.76.76,0,0,0,.4-.1l-.1.5a.1.1,0,0,1-.1.1H35C34.7,27.7,34.7,27.6,34.7,27.4Zm.1,1.2c0-.2.1-.2.3-.2s.1,0,.1.1,0,.2-.1.2v.2H35C34.8,28.9,34.7,28.8,34.8,28.6Zm0,1.1h0v-.1H35c0,.1-.1.1-.1.2a.35.35,0,0,1-.1.2S34.7,29.9,34.8,29.7Zm0-21.2v.2a.1.1,0,0,0,.1.1c.1,0,.2-.1.2-.3V8.3c0-.1-.1-.1-.2-.1s-.1,0-.1.1Zm.2,9.4c-.1.2,0,.3.2.3a.52.52,0,0,0,.4-.2v-.2c-.1-.1-.1-.1-.2-.1C35.1,17.6,35,17.7,35,17.9Zm0-7.1V11c0,.1,0,.1.1.1a.22.22,0,0,0,.2-.2v-.2a.1.1,0,0,0-.1-.1c-.1,0-.1,0-.1.1S35,10.7,35,10.8Zm0,8.4c-.1.2,0,.2.2.2s.3-.1.3-.2-.1-.2-.3-.2A.22.22,0,0,0,35,19.2ZM35,12v.2a.1.1,0,0,0,.1.1.22.22,0,0,0,.2-.2v-.2a.1.1,0,0,0-.1-.1A.22.22,0,0,0,35,12Zm.1-7.5h0c-.1.1-.1.1-.1.2h.2V4.6C35.2,4.5,35.2,4.5,35.1,4.5Zm.3,12c-.1,0-.1.1-.2.2s-.2.2-.2.3c.3,0,.5-.1.5-.3v-.1A.1.1,0,0,0,35.4,16.5ZM35,20.2v.2a.1.1,0,0,0,.1.1.37.37,0,0,0,.3-.1c.1-.1.1-.2.2-.3a.22.22,0,0,0-.2-.2C35.2,19.9,35.1,20,35,20.2Zm.1-14.7v.3a.35.35,0,0,0,.2.1h.1c.1,0,.1,0,.1-.1V5.5a.22.22,0,0,0-.2-.2C35.3,5.2,35.2,5.3,35.1,5.5Zm0,17c-.1.2,0,.4.2.4a.52.52,0,0,0,.4-.2c.1-.2,0-.4-.2-.4h-.2C35.2,22.3,35.2,22.4,35.1,22.5Zm0-15.9v.2c0,.1.1.1.2.1s.3-.1.4-.3V6.4a.1.1,0,0,0-.1-.1c-.1,0-.1,0-.2.1A.77.77,0,0,0,35.1,6.6Zm0,15c0,.1,0,.2.2.2s.3-.1.4-.3,0-.3-.1-.3C35.3,21.1,35.2,21.3,35.1,21.6Zm0-8.5v.4h0c.1,0,.1,0,.1-.1a.1.1,0,0,1,.1-.1v-.2a.1.1,0,0,0-.2,0Zm.1-9.8v.1a.1.1,0,0,0,.1.1c.1,0,.1,0,.2-.1a.22.22,0,0,0,.2-.2V3c0-.1,0-.1-.1-.1s-.2,0-.2.1C35.2,3.1,35.2,3.2,35.2,3.3Zm0,11.1c0,.1,0,.2.1.2s.1,0,.1-.1v-.3h-.1S35.2,14.2,35.2,14.4Zm.1,10.3v.5c0,.1,0,.1.1,0s.1-.1.2-.2v-.2C35.4,24.8,35.4,24.7,35.3,24.7ZM35.2,7.8c-.1.2,0,.3.2.3h.1l.3-.2h0V7.7c0-.1-.1-.1-.2-.1s-.2,0-.2.1C35.3,7.6,35.2,7.7,35.2,7.8Zm0,1.1c0,.1,0,.2.1.2a.35.35,0,0,0,.4-.4.37.37,0,0,0-.3.1C35.3,8.8,35.2,8.8,35.2,8.9Zm.1,1.2c-.1.2,0,.3.2.3s.3-.1.4-.3,0-.3-.2-.3-.1,0-.2.1Zm0,1.2c0,.1,0,.1.1.2s.1.1.2.1h0l.3-.2v-.3c0-.1-.1-.1-.2-.1s-.1,0-.2.1Zm0,4.2c0,.1,0,.2.2.2v-.2c0-.1,0-.1-.1-.1S35.3,15.4,35.3,15.5Zm.1-1.9c-.1.1,0,.1,0,.2a.31.31,0,0,0,.2.1c.1,0,.2,0,.2-.1a.31.31,0,0,0,.1-.2c.1-.2,0-.3-.2-.3h-.1Zm0-1.1v.2c0,.1.1.1.2.1s.1,0,.2-.1l.2-.2c0-.1,0-.1-.1-.2s-.1-.1-.2-.1A.32.32,0,0,0,35.4,12.5Zm.1,2.3c-.1.2,0,.4.2.4s.4-.1.4-.3,0-.1-.1-.2-.1-.1-.2-.1-.1,0-.2.1S35.5,14.7,35.5,14.8Zm0,1.2c-.1.2,0,.4.2.4s.4-.1.4-.3v-.2c-.1-.1-.1-.1-.2-.1S35.6,15.8,35.5,16Zm0-12v.2a.1.1,0,0,0,.1.1V4Zm0,13.1a.37.37,0,0,0,.1.3c.1.1.1.1.2.1s.1,0,.2-.1l.2-.2c0-.1,0-.2-.1-.2s-.1-.1-.2-.1-.1,0-.2.1A.35.35,0,0,0,35.5,17.1Zm.1,2.4v.2c.1.1.1.1.2.1s.1,0,.1-.1a.35.35,0,0,1,.1-.2v-.2c0-.1-.1-.1-.2-.1S35.6,19.3,35.6,19.5Zm0-16c-.1.2,0,.4.2.4a.52.52,0,0,0,.4-.2V3.5c0-.1-.1-.1-.2-.1s-.1,0-.2.1C35.7,3.4,35.7,3.4,35.6,3.5Zm.1,14.7a.22.22,0,0,0,.2.2c.1,0,.2,0,.2-.1a.22.22,0,0,0-.2-.2h-.2Zm0,19c0-.1,0-.2.1-.2a.31.31,0,0,1,.2-.1c.1,0,.1,0,.1.1a.35.35,0,0,0,.1.2c-.1.2-.2.3-.4.3S35.7,37.4,35.7,37.2Zm.1-32.6a.37.37,0,0,0,.1.3c0,.1.1.1.2.1s.3-.1.3-.2,0-.1-.1-.2-.1-.1-.2-.1S35.8,4.5,35.8,4.6Zm0,2.4v.2c0,.1,0,.1.1.1s.1-.1.1-.2S35.9,7,35.8,7Zm0,1.2c-.1.1,0,.2.1.2l.1-.3h-.1A.1.1,0,0,0,35.8,8.2Zm0-5.7v.1c0,.1,0,.1.1.1s.1,0,.2-.1.1-.2.2-.2,0-.1-.1-.1-.1,0-.2.1S35.8,2.5,35.8,2.5ZM36,35.8a.31.31,0,0,0,.2.1v.2c0,.1-.2.2-.4.2a.37.37,0,0,1,.1-.3A.35.35,0,0,1,36,35.8ZM35.9,9.5c-.1.2,0,.2.2.2s.4-.1.4-.3,0-.3-.2-.3-.1,0-.2.1S35.9,9.4,35.9,9.5Zm0,1.1v.2c.1.1.1.1.2.1s.2,0,.2-.1a.31.31,0,0,0,.1-.2c.1-.2,0-.2-.2-.2S36,10.4,35.9,10.6Zm.1,1.2c-.1.2,0,.3.2.3s.1,0,.2-.1.2-.1.2-.2a.3.3,0,1,0-.6,0ZM36,13c-.1.2,0,.3.2.3s.1,0,.2-.1l.2-.2a.27.27,0,0,0-.3-.3Q36.15,12.55,36,13Zm0,22c0-.1.1-.1.2-.2v.1c0,.1,0,.1-.2.1Zm.1-29.3v.2a.35.35,0,0,0,.1.2.35.35,0,0,0,.1-.2V5.7s0-.1-.2,0Zm0,8.4c-.1.2,0,.3.2.3s.4-.1.4-.3,0-.1-.1-.2-.1-.1-.2-.1A.32.32,0,0,0,36.1,14.1Zm0,1.2c-.1.2,0,.3.2.3s.1,0,.2-.1.2-.1.2-.2,0-.3-.2-.3S36.1,15.1,36.1,15.3Zm.2-8.5c-.1.1,0,.2.1.3a.1.1,0,0,0,.1-.1A.22.22,0,0,0,36.3,6.8Zm0,29.7a.22.22,0,0,1,.2-.2h.3c.1,0,.1.1.1.3s-.2.2-.3.2C36.3,36.7,36.2,36.7,36.3,36.5Zm0-1.2c0-.2.1-.2.4-.2.1,0,.1,0,.2.1v.2a.22.22,0,0,1-.2.2h-.2C36.3,35.6,36.2,35.5,36.3,35.3Zm0-32.5c-.1.2,0,.4.2.4s.2-.1.4-.2V2.7c-.1-.1-.1-.1-.2-.1s-.1,0-.2.1S36.3,2.7,36.3,2.8Zm0,1.2v.2c.1.1.1.2.2.2s.1,0,.2-.1.1-.2.2-.2c0-.2-.1-.2-.2-.2s-.1,0-.2.1C36.3,3.9,36.3,3.9,36.3,4Zm0,30.4v-.2c0-.1,0-.1.1-.2a.1.1,0,0,1,.1-.1c.1,0,.1,0,.2.1v.2c-.1.2-.2.2-.3.2Zm.1-29.2v.2c0,.1.1.1.2.1a.27.27,0,0,0,.3-.3c.1-.2,0-.3-.2-.3s-.1,0-.2.1S36.4,5.1,36.4,5.2Zm0,1.2v.2c0,.1.1.1.2.1s.2,0,.2-.1.1-.1.1-.2,0-.3-.2-.3S36.4,6.1,36.4,6.4Zm.1,1.1c-.1.2,0,.3.2.3s.3-.1.4-.3a.22.22,0,0,0-.2-.2C36.6,7.3,36.5,7.3,36.5,7.5Zm.3-5.8c-.1,0-.2,0-.2.1s-.1.1-.1.2A.27.27,0,0,0,36.8,1.7Zm-.3,8.2c-.1.2,0,.3.2.3s.1,0,.2-.1.2-.1.2-.2-.1-.2-.3-.2S36.5,9.7,36.5,9.9Zm.1,1.1c0,.2.1.3.2.3s.2,0,.2-.1l.1-.4h-.2C36.7,10.8,36.6,10.9,36.6,11Zm.1,2.4c-.1.2,0,.2.2.2H37l.1-.1a.1.1,0,0,1,.1-.1c0-.2,0-.3-.2-.3A.27.27,0,0,0,36.7,13.4Zm0-1.2v.2a.1.1,0,0,0,.1.1c.1,0,.2,0,.2-.1s.1-.1.1-.2,0-.3-.2-.3S36.7,12,36.7,12.2Zm.1-10.1c0,.1,0,.1.1.2s.1.1.2.1h0l.3-.2h0c.1-.2,0-.3-.2-.3s-.1,0-.2.1C36.9,1.9,36.9,2,36.8,2.1Zm.1,1.2c-.1.2,0,.3.2.3s.3-.1.4-.3,0-.3-.2-.3S36.9,3.1,36.9,3.3Zm0,1.2c0,.1,0,.1.1.2a.1.1,0,0,0,.1.1c.1,0,.1,0,.1-.1V4.5h.2c.1,0,.1,0,.1-.1s0-.2-.1-.2h-.1c.1,0,0,0-.1.1l-.1-.1h0C37,4.2,37,4.3,36.9,4.5ZM37,5.6c0,.1,0,.2.1.2s.1.1.2.1.1-.1.2-.2V5.5c0-.1-.1-.1-.2-.1s-.1,0-.2.1A.1.1,0,0,0,37,5.6Zm0,1.2c-.1.2,0,.3.2.3s.1,0,.1-.1a.1.1,0,0,1,.1-.1V6.7c0-.1,0-.1-.1-.1S37.1,6.6,37,6.8Zm0,25.9v.2c0,.1.1.1.2.1s.1-.1.1-.2a.37.37,0,0,1,.1-.3c0-.1,0-.2-.2-.2h-.1v.1C37.1,32.7,37.1,32.7,37,32.7Zm.2-21.3v.2a.1.1,0,0,0,.1-.1C37.4,11.5,37.3,11.4,37.2,11.4Zm0,22.4c-.1.1,0,.2.2.2v-.2c0-.1,0-.1-.1-.1A.1.1,0,0,0,37.2,33.8Zm.1-1.8c-.1.3,0,.4.2.4a.37.37,0,0,0,.3-.1c.1-.1.2-.1.2-.2s-.1-.3-.2-.3h-.2C37.4,31.8,37.4,31.9,37.3,32Zm.1,1.2c-.1.3,0,.4.2.4s.1,0,.2-.1a.22.22,0,0,0,.2-.2V33c0-.1-.1-.1-.2-.1s-.2,0-.2.1A.22.22,0,0,0,37.4,33.2Zm0-31.6Zm.1,32.7c-.1.1,0,.2,0,.3s.1.2.2.2.1,0,.2-.1.1-.1.1-.2v-.3c0-.1-.1-.1-.2-.1h-.2c-.1,0-.1,0-.1.2Zm0-31.8c0,.1,0,.1.1.2s.1.1.2.1.3-.1.3-.2,0-.1-.1-.2a.1.1,0,0,0-.1-.1A.52.52,0,0,0,37.5,2.5Zm0,1.2c-.1.2,0,.3.2.3s.2-.1.3-.2,0-.3-.2-.3S37.6,3.5,37.5,3.7Zm.1,1.9v.1h.1l-.1-.1Zm0-.7c-.1.2,0,.2.2.2s.2-.1.3-.2,0-.3-.2-.3S37.7,4.7,37.6,4.9Zm.3,30.4v.2a.1.1,0,0,0,.1.1l.1-.4a.37.37,0,0,0,.3-.1c.1-.1.2-.1.2-.2s-.1-.4-.2-.4h-.2a.22.22,0,0,0-.2.2V35A.44.44,0,0,1,37.9,35.3Zm.1-4v.2a.35.35,0,0,0,.1.2v-.4a.1.1,0,0,0-.1-.1Zm0,1.2c-.1.2,0,.4.1.4s.2,0,.2-.1v-.3a.22.22,0,0,0-.2-.2S38,32.3,38,32.5Zm0,1.1c-.1.3,0,.4.2.4h.2c.1,0,.1-.1.2-.2v-.2c0-.1-.1-.1-.2-.1h-.2C38.1,33.5,38.1,33.5,38,33.6Zm.1-30.7v.2a.35.35,0,0,0,.1.2V3C38.3,2.9,38.2,2.9,38.1,2.9Zm.1,27.2v.3h.1a.22.22,0,0,0,.2-.2c.1-.2,0-.3-.1-.3S38.3,30,38.2,30.1Zm.2,1c0,.1,0,.1-.1.3s0,.2.1.2.1,0,.1-.1C38.6,31.2,38.5,31.1,38.4,31.1Zm.1-.5c0,.1,0,.2.1.2s.1.1.2.1.2-.1.3-.3,0-.3-.2-.3-.1,0-.2.1S38.5,30.5,38.5,30.6Zm0-1a.22.22,0,0,0,.2.2.27.27,0,0,0,.3-.3c.1-.1,0-.2-.1-.2s-.1,0-.2.1S38.6,29.6,38.5,29.6Zm0,2.9c0,.1.1.1,0,0h0Zm.1-.7c-.1.2,0,.3.2.3a.52.52,0,0,0,.4-.2v-.2c-.1-.1-.1-.1-.2-.1S38.6,31.6,38.6,31.8Zm0,1.1c0,.1,0,.2.1.2s.1.1.2.1.2,0,.2-.1.1-.1.1-.2v-.2c0-.1-.1-.1-.2-.1s-.1,0-.2.1Zm.1,1.2c-.1.2,0,.4.2.4s.3-.1.4-.3,0-.3-.2-.3S38.7,33.9,38.7,34.1Zm0,1.2v.1h.1c.1,0,.2,0,.2-.1s.1-.1.1-.2,0-.1-.1-.1S38.8,35.1,38.7,35.3ZM39,25.2v.2h.2c.2,0,.3-.1.3-.2s0-.2-.1-.2S39.1,25,39,25.2Zm0,1.1v.2c0,.1.1.1.2.1a.27.27,0,0,0,.3-.3v-.2c0-.1,0-.1-.1-.1h-.2C39.1,26.2,39,26.2,39,26.3Zm.2,3.6c-.1.2,0,.3.2.3s.3-.1.4-.3v-.2c-.1-.1-.1-.1-.2-.1s-.2,0-.2.1C39.2,29.8,39.2,29.8,39.2,29.9Zm0,1.2c0,.1,0,.2.1.2s.1.1.2.1.1-.1.2-.2.1-.2.1-.3,0-.1-.1-.1-.2,0-.2.1S39.2,31,39.2,31.1Zm0,1.1v.3c0,.1.1.1.2.1s.1,0,.2-.1l.2-.2c0-.2-.1-.3-.2-.3A.52.52,0,0,0,39.2,32.2Zm0,1.2v.2c.1.1.1.1.2.1s.3-.1.4-.3v-.2c0-.1-.1-.1-.2-.1S39.3,33.2,39.2,33.4Zm0-4.5c0,.1,0,.1.1.1s.3-.1.4-.4h-.3C39.3,28.7,39.3,28.8,39.2,28.9Zm.2-1.6v.2h.2c.1,0,.1,0,.1-.1s0-.1-.1-.1Zm-.1,7.2v.2c0,.1,0,.1.1.1h.1c.2-.1.3-.2.3-.4s0-.2-.1-.2-.1,0-.2.1S39.4,34.5,39.3,34.5Zm.3-10a.22.22,0,0,0,.2.2c.2,0,.3-.1.3-.2s0-.3-.2-.3A.27.27,0,0,0,39.6,24.5Zm0,1.2c0,.1,0,.2.2.2a.27.27,0,0,0,.3-.3v-.2h-.2Q39.75,25.4,39.6,25.7Zm.1,1.1c0,.2,0,.3.2.3s.3-.1.4-.3-.1-.2-.2-.2C39.8,26.6,39.7,26.7,39.7,26.8Zm.1,2.4v.2c0,.1.1.1.2.1s.3-.1.4-.3,0-.2-.2-.2S39.8,29,39.8,29.2Zm0,3.4v.3c.1.1.1.1.2.1C40.1,32.7,40,32.6,39.8,32.6Zm0-2h.5l.1-.5h-.5Zm.1,3.2V34a.1.1,0,0,0,.1.1h0l.4-.3h0v-.2c0-.1-.1-.1-.2-.1S40,33.6,39.9,33.8Zm.3-11.2c0,.2.1.2.2.2s.2-.1.2-.2,0-.2-.2-.2A.22.22,0,0,0,40.2,22.6Zm0,1.2c0,.2.1.2.2.2s.3-.1.3-.2,0-.3-.2-.3A.27.27,0,0,0,40.2,23.8Zm0-2.2c-.1.1,0,.1.1.1s.2-.1.3-.2v-.1c0-.1,0-.1-.1-.1s-.1,0-.2.1A.35.35,0,0,0,40.2,21.6Zm0,4.5c-.1.2,0,.2.2.2s.3-.1.3-.2,0-.3-.2-.3S40.3,25.9,40.2,26.1Zm0-1.2c0,.2.1.2.2.2h.2c.1-.1.1-.1.1-.2s0-.3-.1-.3A1.38,1.38,0,0,0,40.2,24.9Zm.1,3.6a.22.22,0,0,0,.2.2.27.27,0,0,0,.3-.3c0-.2-.1-.2-.2-.2S40.4,28.3,40.3,28.5Zm.1,1.1c0,.2.1.2.2.2s.3-.1.3-.2,0-.2-.2-.2S40.5,29.4,40.4,29.6Zm.4.9h-.3l-.1.4V31h.2a.27.27,0,0,0,.3-.3C41,30.6,40.9,30.5,40.8,30.5Zm-.1,1.1v.3a.22.22,0,0,0,.2.2l.2-.2c0-.1,0-.2-.1-.2S40.8,31.6,40.7,31.6Zm0-9.7c-.1.1,0,.2.2.2a.22.22,0,0,0,.2-.2v-.2c0-.1,0-.1-.1-.1S40.8,21.7,40.7,21.9Zm0-1.2c0,.2.1.2.2.2a.22.22,0,0,0,.2-.2c0-.2-.1-.3-.2-.3S40.8,20.5,40.7,20.7Zm.1,2.3c-.1.2,0,.2.2.2s.3-.1.3-.2,0-.3-.2-.3Zm0,1.3c-.1.1,0,.2.2.2s.1,0,.2-.1.1-.1.1-.2,0-.1-.1-.2-.1-.1-.2-.1-.1,0-.2.1C40.9,24.1,40.8,24.2,40.8,24.3Zm.1,1.1c-.1.2,0,.2.2.2s.2-.1.3-.2,0-.2-.2-.2S41,25.2,40.9,25.4Zm0,2.4c0,.1,0,.1.1.1v-.2A.1.1,0,0,0,40.9,27.8Zm0,1.1V29c0,.1,0,.1.1.1a.1.1,0,0,0,.1-.1l.1-.1h.2v-.3a.22.22,0,0,0-.2-.2c-.1,0-.1,0-.2.1C41.2,28.8,41.1,28.9,40.9,28.9Zm.2,1.2c0,.2,0,.2.2.2s.2,0,.2-.1V30a.35.35,0,0,0-.1-.2h0A.27.27,0,0,0,41.1,30.1Zm0,1.1c0,.2.1.2.2.2s.3-.1.3-.2,0-.3-.2-.3A.27.27,0,0,0,41.1,31.2Zm.1,1.2c0,.1,0,.2.2.2a.27.27,0,0,0,.3-.3c.1-.2,0-.2-.2-.2s-.1,0-.2.1A.31.31,0,0,0,41.2,32.4Zm0-4.9a.37.37,0,0,1-.1.3c0,.1,0,.2.1.2s.1-.1.1-.2C41.5,27.5,41.4,27.5,41.2,27.5Zm0,1.3Zm.2-10.1v.2c0,.1,0,.1.1.1s.1-.1.2-.2,0-.2-.1-.2S41.5,18.6,41.4,18.7Zm.1,1.2c0,.1,0,.2.1.2s.1-.1.1-.2,0-.2-.1-.2S41.6,19.8,41.5,19.9Zm.1,7.1c-.1.1,0,.2.2.2s.2-.1.3-.2,0-.2-.2-.2S41.6,26.8,41.6,27Zm0,1.1c-.1.2,0,.3.2.3s.2-.1.3-.3,0-.2-.2-.2S41.7,28,41.6,28.1Zm0,1.2c-.1.2,0,.2.2.2s.2-.1.3-.2,0-.2-.2-.2S41.7,29.2,41.6,29.3Zm0-8.2v.2c.1,0,.2,0,.2-.1s0-.2-.1-.2S41.6,21,41.6,21.1Zm.1,9.4c-.1.2,0,.2.2.2s.3-.1.3-.2,0-.3-.2-.3A.27.27,0,0,0,41.7,30.5Zm0,1.2c0,.1,0,.2.2.2s.3-.1.3-.2v-.2c0-.1,0-.1-.1-.1s-.2,0-.2.1S41.7,31.6,41.7,31.7Zm0-9.5v.2c.1,0,.1,0,.1-.1v-.2A.1.1,0,0,0,41.7,22.2Zm.1,1.3H42a.1.1,0,0,1,.1-.1C41.9,23.3,41.8,23.4,41.8,23.5Zm.1-6.6a.14.14,0,0,0,0,.2h.3a.37.37,0,0,1,.1-.3c0-.1,0-.1-.2-.1A.22.22,0,0,0,41.9,16.9Zm0,1.2c-.1.1,0,.2.1.2s.2-.1.3-.2-.1-.2-.2-.2S41.9,17.9,41.9,18.1Zm0,1.1c-.1.2,0,.3.1.3a.22.22,0,0,0,.2-.2c0-.1.1-.2.1-.3H42A.31.31,0,0,1,41.9,19.2Zm.1,1v.2c0,.1,0,.2.1.2a.22.22,0,0,0,.2-.2v-.2Zm.1,2.5c-.1.1,0,.2.2.2s.3-.1.3-.2a.22.22,0,0,0-.2-.2C42.2,22.5,42.1,22.6,42.1,22.7Zm0-1h0c.2.1.3,0,.3-.1s0-.2-.1-.2a.22.22,0,0,0-.2.2Zm0,2.2c-.1.2,0,.2.2.2s.2-.1.2-.3,0-.2-.1-.2S42.1,23.8,42.1,23.9Zm.1,3.5c-.1.1-.1.2.1.2s.1-.1.1-.2,0-.2-.1-.2A.35.35,0,0,0,42.2,27.4Zm0,1.2c-.1.2,0,.3.2.3s.1-.1.2-.2v-.2a.1.1,0,0,0-.1-.1C42.3,28.4,42.2,28.4,42.2,28.6Zm.1,1.2c-.1.1,0,.2.2.2s.3-.1.3-.2a.22.22,0,0,0-.2-.2C42.4,29.5,42.3,29.6,42.3,29.8Zm.1,1.1c-.1.1,0,.2.2.2s.2-.1.3-.2-.1-.2-.2-.2S42.4,30.8,42.4,30.9ZM42.7,16c-.1,0-.2,0-.2.1a.35.35,0,0,1-.1.2h.2a.22.22,0,0,0,.2-.2V16Zm-.2,1.4c0,.1,0,.2.1.2s.3-.1.3-.2,0-.2-.1-.2S42.5,17.2,42.5,17.4Zm0,14.5V32h0v-.1Zm.1-12.3c0,.1,0,.2.1.2H43v-.3c0-.1-.1-.1-.2-.1S42.6,19.5,42.6,19.6Zm0-1.1c0,.1,0,.2.1.2s.2,0,.2-.1,0-.2-.2-.2C42.7,18.3,42.6,18.4,42.6,18.5Zm.2,2.6c.1,0,.2-.1.3-.2a.2.2,0,0,0-.4,0v.2C42.6,21,42.7,21.1,42.8,21.1Zm-.2.9a.22.22,0,0,0,.2.2c.1,0,.2,0,.2-.1a.37.37,0,0,1,.1-.3h-.3Zm0,1.2c0,.2.1.2.2.2s.2,0,.2-.1a.37.37,0,0,1,.1-.3h-.4c-.1,0-.1,0-.1.1S42.7,23.1,42.6,23.2Zm.1,1.1c0,.2,0,.2.1.2a.27.27,0,0,0,.3-.3v-.1h-.4Zm.1,2.4.1.1a.1.1,0,0,0,.1.1c.2,0,.2-.1.2-.2s0-.2-.1-.2S42.9,26.6,42.8,26.7Zm0-1.1c-.1.1,0,.2.1.2a.27.27,0,0,0,.3-.3c0-.1,0-.1-.1-.1s-.1,0-.2.1Zm.1,2.2c0,.2.1.3.2.3a.27.27,0,0,0,.3-.3.22.22,0,0,0-.2-.2c-.1,0-.1,0-.2.1A.1.1,0,0,0,42.9,27.8Zm0,2.3v.2a.1.1,0,0,0,.1.1.22.22,0,0,0,.2-.2c0-.1,0-.1-.1-.2C43.1,30.1,43,30.1,42.9,30.1Zm.1,1.3c-.1.1,0,.1,0,.1s.2,0,.2-.1.1-.2.1-.3-.2,0-.2.1S43,31.3,43,31.4ZM43,13c0,.1,0,.1.1.1s.1,0,.1-.1,0-.1.1-.2h-.2Zm.1,3.6a.22.22,0,0,0,.2.2c.2,0,.2-.1.2-.2s0-.2-.1-.2-.1,0-.2.1A.1.1,0,0,0,43.1,16.6Zm0,12.2V29c0,.1.1.1.2.1s.1,0,.1-.1S43.3,28.8,43.1,28.8Zm0-14.5c0,.1,0,.2.1.2s.1,0,.1-.1,0-.2-.1-.2S43.2,14.1,43.1,14.3Zm0,3.5c0,.1,0,.2.1.2s.2-.1.2-.2,0-.2-.1-.2S43.2,17.6,43.1,17.8Zm.1-2.3v.2h.2c-.1-.2-.1-.2-.2-.2Zm0,4.6v.2h.3V20c0-.1-.1-.1-.2-.1A.31.31,0,0,1,43.2,20.1Zm0-1.2c0,.1,0,.2.1.2s.2,0,.2-.1-.1-.2-.2-.2S43.2,18.8,43.2,18.9Zm.1,2.4c0,.1,0,.2.2.2a.22.22,0,0,0,.2-.2c0-.1,0-.2-.2-.2A.22.22,0,0,0,43.3,21.3Zm0,1.1c0,.1,0,.2.1.2a.22.22,0,0,0,.2-.2c0-.1,0-.2-.2-.2C43.4,22.3,43.3,22.3,43.3,22.4Zm.1,1-.1.4h.3c.1,0,.1-.1.1-.2s0-.2-.2-.2Zm0,2.6a.2.2,0,1,0,.4,0c.1-.2,0-.2-.2-.2S43.4,25.8,43.4,26Zm.1,1.1v.2a.1.1,0,0,0,.1.1c.1,0,.1,0,.2-.1s.1-.1.1-.2,0-.2-.2-.2A.22.22,0,0,0,43.5,27.1Zm0,1.2c0,.2.1.2.2.2s.1,0,.2-.1.1-.1.1-.2,0-.2-.2-.2S43.5,28.1,43.5,28.3Zm0,1.2c0,.1,0,.1.1.2s.1.1.2.1.1,0,.2-.1.1-.1.1-.2,0-.3-.1-.3C43.7,29.2,43.5,29.3,43.5,29.5Zm.1-18.3c-.1.1,0,.1.1.1s.1,0,.2-.1,0-.2-.1-.2S43.6,11.1,43.6,11.2Zm0,1.2h0l.1.1a.22.22,0,0,0,.2-.2c0-.1,0-.1-.1-.1A.22.22,0,0,0,43.6,12.4Zm0,1.1v.2a.1.1,0,0,0,.1.1c.1,0,.1,0,.1-.1s0-.1.1-.2,0-.1-.1-.1S43.6,13.4,43.6,13.5Zm.1,2.4c-.1.1,0,.2.1.2s.2,0,.2-.1-.1-.2-.2-.2S43.7,15.7,43.7,15.9Zm0,1.1h.1c.1,0,.1,0,.1-.1s0-.1,0-.1A.22.22,0,0,0,43.7,17Zm.1-2.3c0,.1,0,.1.1.1s.1,0,.2-.1,0-.2-.1-.2A.22.22,0,0,0,43.8,14.7Zm.2,8.1V23a.22.22,0,0,0,.2-.2Zm.1,2.4c-.1.2,0,.2.2.2a.22.22,0,0,0,.2-.2c0-.1,0-.2.1-.2h-.3C44.1,25,44.1,25.1,44.1,25.2Zm0,1v.3a.2.2,0,0,0,.4,0c0-.1,0-.2-.1-.2A.37.37,0,0,0,44.1,26.2Zm0-16.9c-.1.1-.1.2,0,.2a.2.2,0,0,0,0-.4C44.2,9.1,44.1,9.2,44.1,9.3Zm0,18.3c0,.1,0,.2.2.2a.22.22,0,0,0,.2-.2v-.1c-.1,0-.1-.1-.2-.1s-.1,0-.2.1Zm0,1.1a.2.2,0,0,0,.4,0v-.1l-.1-.1C44.3,28.5,44.2,28.6,44.1,28.7Zm0-18.2c0,.1.1.1.2.1s.1,0,.1-.1,0-.1-.1-.1S44.2,10.5,44.1,10.5Zm.1,1.1c0,.1,0,.2.1.2a.22.22,0,0,0,.2-.2c.1-.1,0-.2-.1-.2S44.2,11.5,44.2,11.6Zm0,18.3c0,.2.1.3.2.3a.27.27,0,0,0,.3-.3v-.1h-.3C44.2,29.7,44.2,29.8,44.2,29.9ZM44.3,14c-.1.1-.1.2.1.2a.22.22,0,0,0,.2-.2c0-.1,0-.2-.1-.2A.22.22,0,0,0,44.3,14Zm0-1.1V13h0v-.1Zm0,3.4c-.1.1,0,.1.1.1h.1v-.1c0-.1,0-.1-.1-.1A.1.1,0,0,0,44.3,16.3Zm.4,1.1c-.1,0-.1,0-.1.1s-.1.1-.1.2c.2,0,.3-.1.3-.2A.1.1,0,0,0,44.7,17.4Zm-.2,1.3h0l.1.2.1-.1.1-.1c0-.1,0-.2-.1-.2S44.5,18.6,44.5,18.7Zm.1.9V20h0c.1,0,.2,0,.2-.1v-.2C44.7,19.6,44.7,19.6,44.6,19.6Zm.1,1.2v.4h.1c.1,0,.1-.1.2-.2C44.9,20.8,44.8,20.8,44.7,20.8Zm0,4.9a.14.14,0,0,0,0,.2H45v-.3c0-.1-.1-.1-.2-.1S44.7,25.5,44.7,25.7Zm0-1.2c0,.1,0,.2.1.2s.3-.1.3-.2a.22.22,0,0,0-.2-.2C44.7,24.3,44.7,24.4,44.7,24.5Zm0-15.9c0,.1,0,.2.1.2a.22.22,0,0,0,.2-.2c0-.1,0-.1-.1-.1S44.7,8.5,44.7,8.6Zm.3,18c-.1,0-.2,0-.2.1a.37.37,0,0,1-.1.3H45c.1,0,.1-.1.2-.2A.22.22,0,0,0,45,26.6ZM44.7,9.7a.2.2,0,0,0,.4,0c.1-.1,0-.2-.1-.2A.77.77,0,0,0,44.7,9.7ZM44.8,28a.14.14,0,0,0,0,.2h.3a.37.37,0,0,1,.1-.3c0-.1,0-.1-.2-.1A.22.22,0,0,0,44.8,28Zm0-17.2c-.1.1-.1.2.1.2s.1-.1.2-.2h-.3Zm0,18.2v.3c0,.1.1.1.2.1a.22.22,0,0,0,.2-.2c0-.1,0-.2-.1-.2Zm0-15.7c0,.1.1.1.2.1s.2,0,.2-.1v-.1H45C45,13.1,44.9,13.1,44.8,13.3Zm.1,1.1h0a.31.31,0,0,1,.1.2c.1,0,.1-.1.2-.2h0v-.1h-.1C45,14.3,45,14.3,44.9,14.4Zm.2,5.9c-.1.1-.1.1,0,.1h.1a.22.22,0,0,0,.2-.2c.1-.1,0-.2-.1-.2S45.2,20.2,45.1,20.3Zm0-2.4c0,.1,0,.2.1.2a.22.22,0,0,0,.2-.2c.1-.1,0-.2-.1-.2A.22.22,0,0,0,45.1,17.9Zm0,1.2a.2.2,0,0,0,.4,0c.1-.1,0-.2-.1-.2S45.1,19,45.1,19.1Zm0,2.4a.22.22,0,0,0,.2.2,7961314590657.54,7961314590657.54,0,0,0,.2-.2v-.1h-.1C45.3,21.3,45.2,21.3,45.1,21.5Zm.1,2.3a.2.2,0,0,0,.4,0c.1-.1,0-.2-.1-.2S45.2,23.6,45.2,23.8Zm0,1.1a.2.2,0,0,0,.4,0v-.1h-.1A.37.37,0,0,0,45.2,24.9Zm.2,2.2v.3c0,.1,0,.1.1.1s.1,0,.2-.1A.27.27,0,0,0,45.4,27.1ZM45.4,9c0,.1,0,.2.1.2s.1-.1.1-.2V8.9h-.1A.1.1,0,0,0,45.4,9Zm0,19.5c0,.1.1.1.2.1s.2,0,.2-.1,0-.2-.2-.2S45.4,28.3,45.4,28.5Zm.1-14.8a.2.2,0,1,0,.4,0c0-.1,0-.2-.1-.2h-.1C45.5,13.6,45.5,13.6,45.5,13.7Zm.2-1.3c-.1,0-.2,0-.2.1h.2C45.8,12.4,45.7,12.4,45.7,12.4Zm-.1,2.4c0,.1,0,.2.1.2s.1,0,.1-.1,0-.1.1-.2h-.2A.1.1,0,0,0,45.6,14.8Zm0,2.4c0,.1,0,.2.1.2a.22.22,0,0,0,.2-.2c0-.1,0-.2-.1-.2l-.1.1-.1.1Zm.1,2.3c0,.1,0,.2.1.2a.22.22,0,0,0,.2-.2c.1-.1,0-.2-.1-.2Zm0-1.1c0,.1,0,.2.1.2a.22.22,0,0,0,.2-.2c0-.1,0-.2-.1-.2A.22.22,0,0,0,45.7,18.4Zm.1-13.7h0c.1.1.2.1.2,0s0-.2-.1-.2A.31.31,0,0,0,45.8,4.7Zm0,16c0,.1,0,.2.1.2a.22.22,0,0,0,.2-.2c0-.1,0-.2-.1-.2S45.9,20.6,45.8,20.7Zm.1,2.4c0,.1,0,.2.1.2a.22.22,0,0,0,.2-.2c.1-.1,0-.2-.1-.2S45.9,22.9,45.9,23.1Zm0,1.1c0,.1,0,.2.1.2h.2a.1.1,0,0,0,.1-.1.22.22,0,0,0-.2-.2C46,24,45.9,24.1,45.9,24.2ZM46,8.3c-.1,0,0,.1,0,0,.2.1.2.1.2,0s0-.1-.1-.1S46,8.2,46,8.3Zm.1-1.4h0l-.1.3a.22.22,0,0,0,.2-.2Zm.2,2.4c-.2,0-.3.1-.3.2h.2ZM46,25.4c0,.1,0,.2.1.2a.22.22,0,0,0,.2-.2c0-.1,0-.1-.2-.1C46.1,25.2,46.1,25.3,46,25.4Zm.1-13.6c-.1.1,0,.2.1.2s.1,0,.2-.1a.22.22,0,0,0-.2-.2C46.2,11.6,46.1,11.7,46.1,11.8Zm.1,2.2c0,.1,0,.1-.1.2s0,.1.1.1a.22.22,0,0,0,.2-.2c0-.1,0-.1-.1-.1Zm0,1.2c0,.1,0,.2.1.2s.1,0,.2-.1-.1-.1-.2-.1Zm.1,1.2c0,.1,0,.2.1.2s.1-.1.2-.2-.1-.1-.2-.1A.1.1,0,0,0,46.3,16.4Zm0,1.2c-.1.1,0,.2.1.2a.22.22,0,0,0,.2-.2c0-.1,0-.1-.1-.1S46.3,17.5,46.3,17.6Zm0,1.2a.22.22,0,0,0,.2.2c.1,0,.1,0,.2-.1s0-.1-.1-.1S46.3,18.7,46.3,18.8Zm.1,2.3h0c.2.1.2,0,.2-.1v-.1a.1.1,0,0,0-.1.1A.1.1,0,0,0,46.4,21.1Zm0-1.2c0,.1,0,.2.1.2s.1-.1.2-.2,0-.2-.1-.2S46.4,19.8,46.4,19.9Zm0,2.3v.2h.3C46.7,22.3,46.6,22.2,46.4,22.2Zm.3-16c-.1,0-.1,0-.1.1s-.1.1-.1.2h.2V6.2Zm-.2,17.3c-.1.1,0,.1.1.1s.2,0,.2-.1,0-.2-.1-.2A.22.22,0,0,0,46.5,23.5Zm0-21.9v.1h.1C46.6,1.6,46.6,1.6,46.5,1.6Zm0,23.1c-.1.1,0,.2.1.2s.1-.1.2-.2,0-.2-.1-.2S46.5,24.5,46.5,24.7Zm0,1.1a.2.2,0,1,0,.2-.2.1.1,0,0,0-.1.1Zm.1-17.1c0,.1,0,.1.1.1h0V8.7h0V8.6l-.1-.1C46.7,8.6,46.6,8.6,46.6,8.7Zm0,18.3c-.1.1,0,.2.1.2a.22.22,0,0,0,.2-.2c0-.1,0-.2-.1-.2A.22.22,0,0,0,46.6,27Zm.1-15.9c0,.1,0,.1.1.1s.2,0,.1-.1h-.2Zm.2,1c-.1,0-.1.1-.2.2h.2C47,12.2,47,12.1,46.9,12.1Zm.1,6c-.1,0-.1.1,0,0,0,.1.1.1.1,0s0-.1-.1-.1Zm-.1-16a.22.22,0,0,0,.2.2c.1,0,.1,0,.1-.1s0-.1-.1-.1S46.9,2,46.9,2.1ZM47,19.3c0,.1,0,.1.1.1h0v-.1C47,19.1,47,19.2,47,19.3Zm0-16h0c.2.1.2,0,.2-.1s0-.1,0-.1S47,3.2,47,3.3Zm0,17v.2c0,.1,0,.1.1.1s.1,0,.1-.1S47.2,20.3,47,20.3Zm0,1.3c0,.1,0,.1.1.1a.22.22,0,0,0,.2-.2c0-.1,0-.1-.1-.1S47.1,21.5,47,21.6Zm.1,1.1c-.1.1,0,.2.1.2a.22.22,0,0,0,.2-.2c0-.1-.1-.1-.2-.1S47.1,22.6,47.1,22.7Zm0-18.2c0,.1,0,.1.1.1s.1-.1.2-.2C47.2,4.3,47.1,4.4,47.1,4.5Zm0,1.2h.1c.1,0,.1,0,.1-.1V5.5A.22.22,0,0,0,47.1,5.7Zm.1,18.2c-.1.1,0,.2.1.2a.22.22,0,0,0,.2-.2h-.1l-.1-.1h0C47.2,23.8,47.2,23.8,47.2,23.9Zm0,1.2c-.1.1,0,.2.1.2a.22.22,0,0,0,.2-.2c0-.1,0-.2-.1-.2s-.1,0-.2.1Zm0,1.1c-.1,0-.1.1,0,.1h.1a.2.2,0,1,0,0-.4Zm0-19.5v.2h.2V6.7Zm0,2.4h.2V9A.31.31,0,0,1,47.2,9.1Zm.1,18.3v.1h.1l-.1-.1Zm0-17.1c0,.1,0,.2.1.2a.22.22,0,0,0,.2-.2Zm.1,1.1v.1a.1.1,0,0,0,.1.1l.1-.1a.1.1,0,0,1,.1-.1Zm0,1.3c0,.1,0,.1.1.1s.1,0,.1-.1,0-.1.1-.2C47.5,12.5,47.4,12.6,47.4,12.7Zm0,1.2c0,.1,0,.1.1.1a.22.22,0,0,0,.2-.2c.1-.1.1-.1,0-.1s-.1,0-.2.1S47.4,13.8,47.4,13.9Zm.1,1.1c0,.1,0,.1.1.1s.1,0,.1-.1,0-.1.1-.2C47.6,14.9,47.5,14.9,47.5,15Zm0,1.2h.1c.1,0,.2,0,.2-.1s0-.1-.1-.1A.22.22,0,0,0,47.5,16.2Zm.1,1v.2h.2v-.2Zm-.1,1.3h0a.31.31,0,0,1,.1.2c.1,0,.1-.1.2-.2h0c0-.1,0-.1-.1-.1S47.6,18.4,47.5,18.5Zm.1-17.1h0c.1.1.2.1.2,0s0-.1-.1-.1S47.6,1.3,47.6,1.4Zm0,1.2h0c.1.1.2.1.2,0s0-.1-.1-.1A.1.1,0,0,0,47.6,2.6Zm0,1.1c0,.1,0,.2.1.2s.1-.1.1-.2Zm.2,1.1c-.1,0-.1,0-.1.1s0,.1-.1.1h.2C48,4.9,47.9,4.8,47.8,4.8ZM47.7,22c0,.1,0,.1.1.1s.2,0,.2-.1,0-.2-.1-.2A.22.22,0,0,0,47.7,22Zm.2-16c-.1,0-.1,0-.1.1s-.1.1-.1.2c.2-.1.3-.2.2-.3Zm-.2,17.2c0,.1.1.1.2.1s.2,0,.2-.1v-.1H48C47.8,23,47.8,23.1,47.7,23.2Zm.1,1.2c0,.1,0,.2.1.2a.22.22,0,0,0,.2-.2c.1-.1,0-.2-.1-.2S47.8,24.2,47.8,24.4Zm.2,2.1c-.1,0-.2.1-.2.3a.52.52,0,0,0,.4-.2C48.1,26.6,48.1,26.5,48,26.5Zm-.2-1c0,.1.1.1.2.1s.2,0,.2-.1,0-.2-.1-.2S47.8,25.4,47.8,25.5ZM48,7.2c-.1,0-.1.1-.1.2,0-.1.1-.1.1-.2Zm.1,3.5c-.1,0-.1.1-.1.2.1-.1.2-.1.1-.2Zm0,1.1c-.1.1-.1.1-.1.2s.2,0,.1-.2ZM48,14.3h0c.2.1.2.1.2,0s0-.1-.1-.1A.1.1,0,0,0,48,14.3Zm.1-1.3v.1c.1,0,.2,0,.2-.1Zm.1,2.3-.1.2h.2c0-.1,0-.2-.1-.2Zm-.1,1.3h0l.1.1h0l.1-.1h0c0-.1,0-.1-.1-.1A.1.1,0,0,0,48.1,16.6Zm.1,1.2v.1c.1,0,.2,0,.2-.1s0-.1-.2,0Zm0,1.1c0,.1,0,.2.1.2s.1,0,.2-.1,0-.1-.1-.1Zm0-17.1h0c.2.1.2,0,.2-.1A.35.35,0,0,0,48.2,1.8Zm0,1.2c0,.1,0,.1.1.1s.2,0,.2-.1Zm.1,1.2h0c.2.1.2,0,.2-.1h-.1C48.3,4.1,48.3,4.1,48.3,4.2Zm0,17.1c0,.1.1.1.2.1v-.2c0-.1,0-.1-.1-.1A.31.31,0,0,1,48.3,21.3Zm.1-16c-.1.1,0,.1,0,0,.1.1.2.1.2,0s0-.1-.1-.1A.1.1,0,0,0,48.4,5.3Zm0,19.5a.22.22,0,0,0,.2.2c.1,0,.1,0,.2-.1s0-.2-.1-.2S48.4,24.7,48.4,24.8Zm.1-18.3Zm-.1,1.1c0,.1,0,.2.1.2a.22.22,0,0,0,.2-.2ZM48.5,26c0,.1,0,.2.1.2a.22.22,0,0,0,.2-.2c0-.1,0-.2-.1-.2S48.5,25.8,48.5,26Zm.1-3.7-.1.1v.1h.2v-.1Zm.1-11.2h0c-.1.1-.1.1-.1.2h.2v-.1A.1.1,0,0,0,48.7,11.1Zm-.1,1.2c0,.1,0,.2.1.2a.22.22,0,0,0,.2-.2Zm.1,1.2v.2a.22.22,0,0,0,.2-.2Zm0,1.2v.1h.2c.1-.1,0-.2-.2-.1Zm0,1.2h0a.14.14,0,0,0,.2,0c0-.1,0-.1-.1-.1S48.7,15.8,48.7,15.9Zm0,1.1c0,.1,0,.2.1.2A.22.22,0,0,0,49,17Zm.4,1.1c-.2,0-.3.1-.3.2H49Zm-.2,2.5c-.1.1,0,.1.1.1s.1,0,.1-.1,0-.1.1-.2H49C48.9,20.5,48.9,20.5,48.9,20.6Zm.1,1.1c-.1.1,0,.2.1.2a.22.22,0,0,0,.2-.2c0-.1-.1-.1-.2-.1S49,21.6,49,21.7ZM49,4.6Zm0,18.3c0,.1,0,.2.1.2s.1-.1.2-.2,0-.2-.1-.2A.22.22,0,0,0,49,22.9Zm.1-17.2v.2a.22.22,0,0,0,.2-.2ZM49,7h0c.1,0,.2,0,.2-.1S49.1,6.9,49,7Zm0,17c0,.1,0,.2.1.2a.22.22,0,0,0,.2-.2c0-.1,0-.1-.1-.1S49,23.9,49,24Zm.3,1.3a.22.22,0,0,0-.2.2Zm-.1-14.9h0c.1.1.2.1.2,0Zm0,1.2h0c.1.1.2.1.2,0h-.2Zm.2,1.1c-.1.1-.1.1-.1.2h.2A.31.31,0,0,1,49.4,12.7Zm-.1,1.2v.2h.1C49.5,13.9,49.4,13.9,49.3,13.9Zm.1,1.1v.2c.1,0,.2,0,.2-.1a.35.35,0,0,0-.2-.1Zm0,1.2a.14.14,0,0,0,0,.2s.2-.1.2-.2Zm.1,1.3c-.1,0,0,.1,0,0,.1.1.2,0,.2-.1C49.5,17.4,49.5,17.4,49.5,17.5Zm0-14.8c0,.1,0,.1.1.1s.1,0,.1-.1V2.6C49.5,2.6,49.5,2.7,49.5,2.7Zm0,19.4v.1h.1c.1,0,.1,0,.1-.1s0-.1-.2-.1C49.6,22.1,49.5,22.1,49.5,22.1Zm.1-18.3v.1h.1V3.8Zm0,1.2v.2h.1V5Zm0,18.2v.2c0,.1,0,.1.1.1s.1,0,.1-.1v-.2Zm.1,1.3c0,.1,0,.2.1.2s.1-.1.2-.2,0-.1-.1-.1S49.7,24.4,49.7,24.5Zm.4-5.4h0c.2.1.2.1.2,0s0-.1-.1-.1Zm0,1.2c0,.1,0,.1.1.1s.2,0,.2-.1v-.1h-.1C50.1,20.2,50.1,20.2,50.1,20.3Zm.3,1c-.2,0-.3.1-.3.2h.2Zm-.2-17h0c.2.1.2,0,.2-.1A.35.35,0,0,0,50.2,4.3Zm0,18.3c0,.1,0,.1.1.1s.2,0,.2-.1,0-.1-.1-.1S50.2,22.5,50.2,22.6Zm.1-17.1v.1h.1V5.5Zm0,18.3c0,.1,0,.1.1.1s.1,0,.1-.1,0-.1-.1-.1S50.3,23.7,50.3,23.8Zm.3-8.9h0c.1.1.1,0,.2-.1C50.7,14.8,50.6,14.8,50.6,14.9Zm0,1.1c0,.1,0,.1.1.1s.1,0,.1-.1,0-.1-.1-.1A.1.1,0,0,1,50.6,16Zm.1,2.3v.1c.1,0,.2,0,.2-.1Zm.1,1.2v.1c.1,0,.1,0,.1-.1v-.1A.1.1,0,0,0,50.8,19.5Zm0,2.4h0l.1.1h0c.1,0,.2,0,.2-.1s0-.2-.1-.2S50.8,21.8,50.8,21.9Zm.1-1.3c-.1,0-.1,0-.1.1h.1Zm0,2.5c0,.1,0,.1.1.1s.1,0,.1-.1V23C50.9,22.9,50.9,23,50.9,23.1Zm.3-7.8h0c.2.1.2.1.2,0s0-.1-.1-.1S51.2,15.2,51.2,15.3Zm.1,1.2h0c.2.1.2.1.2,0s-.1-.1-.2,0Zm0,1.1c0,.1,0,.1.1.1a.22.22,0,0,0,.2-.2h-.1C51.3,17.5,51.3,17.6,51.3,17.6Zm0,1.1c0,.1,0,.2.1.2a.22.22,0,0,0,.2-.2Zm.1,3.6Zm.4-7.7H52A.14.14,0,0,0,51.8,14.6Zm.1,1.1h0c.2.1.2,0,.2-.1A.31.31,0,0,1,51.9,15.7Zm.1,1.1V17c.1,0,.1-.1.2-.2Zm0,1.3c-.1,0-.1.1,0,0,.2.1.2,0,.2-.1S52,18,52,18.1Zm.1,1a.22.22,0,0,0-.2.2c.2.1.3,0,.2-.2C52.2,19.2,52.2,19.1,52.1,19.1Zm0,1.2c0,.1,0,.2.1.2v-.1C52.2,20.3,52.2,20.3,52.1,20.3Zm.5-3h0l.1.1c.1-.1.1-.1-.1-.1Zm.5-.7c0,.1.1.1,0,0,.2.1.2.1.2,0s0-.1-.2,0Z"/><path class="cls-1" d="M64.1.8H95.3L93.8,11H74.5L72.6,23.7H90.9L89.3,34H71.1L69,48.2H87.7L86.2,58.4H55.5Z"/><path class="cls-1" d="M100.1.8h31.2L129.8,11H110.5l-1.9,12.7h18.3L125.3,34H107.1L105,48.2h18.7l-1.5,10.2H91.5Z"/><path class="cls-1" d="M137,.8h10.9c7.3,0,12.9,1.5,16.7,4.5s5.7,7.3,5.7,12.9a21.78,21.78,0,0,1-3.1,11.7c-2.1,3.4-5.6,5.6-10.4,6.7L168,58.5H155.9L145.2,37.6h-1.8l-3.1,20.9h-12ZM147.4,11,145,27.3l2.4.1a11.87,11.87,0,0,0,7.7-2.5,7.53,7.53,0,0,0,3.1-6.1c0-2.7-.9-4.7-2.6-5.9S151.1,11,147.4,11Z"/><path class="cls-1" d="M229.2,13.4l-8.6,6.5a19.48,19.48,0,0,0-7.4-6.7,18.24,18.24,0,0,0-8.3-2.1,17.36,17.36,0,0,0-13.8,6.1c-3.5,4.1-5.3,9.4-5.3,16a15.1,15.1,0,0,0,4.6,11.1A14.92,14.92,0,0,0,201.3,49a15.87,15.87,0,0,0,8.7-2.7,18.87,18.87,0,0,0,6.6-8.5H203.2V27.6h26.1c.2,9.9-2.6,17.7-8.3,23.2s-12.3,8.4-19.6,8.4c-8.3,0-15-2.4-20.1-7.3s-7.6-11.3-7.6-19.2c0-10.1,3.3-18.1,9.8-23.9S197.2,0,205,0a27.88,27.88,0,0,1,13.5,3.6A29.67,29.67,0,0,1,229.2,13.4Z"/><path class="cls-1" d="M240.9.8h10.9c7.3,0,12.9,1.5,16.7,4.5s5.7,7.3,5.7,12.9a21.78,21.78,0,0,1-3.1,11.7c-2.1,3.4-5.6,5.6-10.4,6.7l11.2,21.9H259.8L249.2,37.6h-1.8l-3.1,20.9h-12ZM251.3,11l-2.4,16.3,2.4.1a11.87,11.87,0,0,0,7.7-2.5,7.53,7.53,0,0,0,3.1-6.1c0-2.7-.9-4.7-2.6-5.9S255,11,251.3,11Z"/><path class="cls-1" d="M283.3.8h11.9l-8.5,57.7H274.8Z"/><path class="cls-1" d="M300.3.8h12C326.7.8,334,6.9,334,19.1a18.07,18.07,0,0,1-2.2,8.9,16.88,16.88,0,0,1-5.4,6.3,16.48,16.48,0,0,1-6.8,2.7,86.91,86.91,0,0,1-12.6.6l-3.1,21H292ZM310.9,11l-2.5,16.2h3.2a10.28,10.28,0,0,0,7.1-2.5,8.12,8.12,0,0,0,2.9-6.2,6.79,6.79,0,0,0-2.4-5.3,8.53,8.53,0,0,0-5.9-2.1h-2.4Z"/><path class="cls-1" d="M322,52.5a7.65,7.65,0,0,1,1.8-5.2,6.13,6.13,0,0,1,4.6-2,6.19,6.19,0,0,1,4.6,1.9,6.13,6.13,0,0,1,1.9,4.5,7.59,7.59,0,0,1-1.9,5.4,5.94,5.94,0,0,1-4.7,2.1,6.29,6.29,0,0,1-4.6-2A7.14,7.14,0,0,1,322,52.5Z"/><path class="cls-1" d="M345,.8h12.2l18.5,38.6L381.4.8h11.8l-8.5,57.7H373.6l-19.3-40-5.8,40H336.6Z"/><path class="cls-1" d="M399.7.8h11.9l-6.9,47.5h19.1l-1.5,10.2H391.2Z"/></g></g></svg>